<?xml version="1.0" encoding="UTF-8"?>
<svg width="359px" height="294px" viewBox="0 0 359 294" version="1.1" xmlns="http://www.w3.org/2000/svg" xmlns:xlink="http://www.w3.org/1999/xlink">
    <!-- Generator: Sketch 51.2 (57519) - http://www.bohemiancoding.com/sketch -->
    <title>nativescript_with_angular_pro_1</title>
    <desc>Created with Sketch.</desc>
    <defs></defs>
    <g id="source_illustrations" stroke="none" stroke-width="1" fill="none" fill-rule="evenodd">
        <g id="nativescript_with_angular_pro" transform="translate(2.000000, 0.000000)">
            <g id="nativescript_with_angular_pro_image" transform="translate(90.000000, 50.000000)">
                <g id="circle_bg" transform="translate(2.000000, 17.000000)">
                    <circle id="circle_2" fill="#0C3E91" cx="87" cy="87" r="83"></circle>
                    <circle id="circle_1" stroke="#0B49AF" cx="87" cy="87" r="87"></circle>
                    <rect id="rectangle" fill="#1550B1" transform="translate(51.677670, 39.677670) rotate(-315.000000) translate(-51.677670, -39.677670) " x="39.1776695" y="27.1776695" width="25" height="25"></rect>
                    <rect id="rectangle" fill="#1550B1" transform="translate(114.677670, 132.677670) rotate(-315.000000) translate(-114.677670, -132.677670) " x="102.17767" y="120.17767" width="25" height="25"></rect>
                    <rect id="rectangle" fill="#1148A3" transform="translate(145.516504, 120.516504) rotate(-315.000000) translate(-145.516504, -120.516504) " x="138.78732" y="113.78732" width="13.4583694" height="13.4583694"></rect>
                </g>
                <g id="lines" transform="translate(0.000000, 37.000000)" fill-rule="nonzero">
                    <polygon id="Path-28" fill="#367BEE" points="178.689767 19.5675403 179.191678 20.4324597 125.249388 51.7350491 124.747477 50.8701297"></polygon>
                    <polygon id="Path-28" fill="#276BDB" points="183.689767 10.5675403 184.191678 11.4324597 130.249388 42.7350491 129.747477 41.8701297"></polygon>
                    <polygon id="Path-28" fill="#185AC8" points="189.689767 0.567540299 190.191678 1.4324597 136.249388 32.7350491 135.747477 31.8701297"></polygon>
                    <polygon id="Path-28" fill="#185AC8" points="54.6897675 109.56754 55.1916782 110.43246 1.24938776 141.735049 0.747476982 140.87013"></polygon>
                    <polygon id="Path-28" fill="#276BDB" points="59.6897675 100.56754 60.1916782 101.43246 6.24938776 132.735049 5.74747698 131.87013"></polygon>
                    <polygon id="Path-28" fill="#367BEE" points="65.6897675 90.5675403 66.1916782 91.4324597 12.2493878 122.735049 11.747477 121.87013"></polygon>
                </g>
                <g id="ng" transform="translate(93.000000, 71.000000)">
                    <g id="Angular_badge" fill-rule="nonzero">
                        <polygon id="Shape" fill="#DD0031" points="31.5 0 31.5 0 31.5 0 0.301595745 11.1255319 5.06010638 52.3771277 31.5 67.0212766 31.5 67.0212766 31.5 67.0212766 57.9398936 52.3771277 62.6984043 11.1255319"></polygon>
                        <polygon id="Shape" fill="#C3002F" points="31.5 0 31.5 7.4393617 31.5 7.40585106 31.5 41.3521277 31.5 41.3521277 31.5 67.0212766 31.5 67.0212766 57.9398936 52.3771277 62.6984043 11.1255319"></polygon>
                    </g>
                    <g id="logo" transform="translate(14.938144, 16.886598)">
                        <rect id="circle_2" fill="#FFFFFF" x="0" y="0" width="31.8247423" height="31.8247423" rx="15.9123711"></rect>
                        <path d="M15.9123711,1.98904639 C8.22273121,1.98904639 1.98904639,8.22273121 1.98904639,15.9123711 C1.98904639,23.6020111 8.22273121,29.8356959 15.9123711,29.8356959 C23.6020111,29.8356959 29.8356959,23.6020111 29.8356959,15.9123711 C29.8356959,8.22273121 23.6020111,1.98904639 15.9123711,1.98904639 Z M15.9123711,1.19342784 C24.0414191,1.19342784 30.6313144,7.78332322 30.6313144,15.9123711 C30.6313144,24.0414191 24.0414191,30.6313144 15.9123711,30.6313144 C7.78332322,30.6313144 1.19342784,24.0414191 1.19342784,15.9123711 C1.19342784,7.78332322 7.78332322,1.19342784 15.9123711,1.19342784 Z" id="circle_1" fill="#FFC4D0" fill-rule="nonzero"></path>
                        <path d="M25.0437139,15.7217062 C24.6485826,15.3286421 24.4432087,14.8353967 24.4269045,14.2419701 L24.4269045,10.0494827 C24.4143325,9.45605612 24.2106283,8.96202502 23.8158898,8.56729123 C23.4210532,8.17216457 22.9266235,7.96885555 22.3332881,7.956382 L20.2400646,7.956382 L20.2400646,18.4288591 L11.8551881,7.95618557 L9.76157173,7.95618557 C9.16813816,7.96875733 8.67410127,8.17206635 8.27936285,8.56719301 C7.88423156,8.96202502 7.68092016,9.45605612 7.66844646,10.0492863 L7.66844646,14.2419701 C7.65204405,14.8353967 7.44667006,15.3286421 7.05153877,15.7217062 C6.65670214,16.1142792 6.16266525,16.318865 5.5693299,16.335169 C6.16266525,16.3518659 6.65680035,16.5564518 7.05144056,16.9490248 C7.44667006,17.3420889 7.65204405,17.8353342 7.66834825,18.4287609 L7.66834825,22.6212482 C7.68092016,23.2141837 7.88423156,23.7087059 8.27936285,24.1034397 C8.67419949,24.4982717 9.16823637,24.7018754 9.76147351,24.714349 L11.8551881,24.714349 L11.8551881,14.2420683 L20.2400646,24.7146436 L22.3332881,24.7146436 C22.9266235,24.7020718 23.4211514,24.4983699 23.8158898,24.1036362 C24.2107265,23.7088041 24.4143325,23.2143802 24.4268062,22.6215429 L24.4268062,18.4288591 C24.4432087,17.8354325 24.6485826,17.3421871 25.0437139,16.949123 C25.4385506,16.55655 25.9325874,16.3519641 26.5259228,16.3352673 C25.9325874,16.318865 25.4384523,16.1143774 25.0438121,15.7218044 L25.0437139,15.7217062 Z" id="Path" fill="#FF5579"></path>
                    </g>
                </g>
                <g id="nativescript-copy" transform="translate(25.000000, 74.000000)" fill="#FFFFFF" fill-rule="nonzero">
                    <path d="M52.8255754,4.61267034 C55.5063985,7.29349347 56.8982445,10.6516475 57,14.6873551 L57,43.1880231 C56.8982445,47.2226174 55.5066212,50.5818847 52.8255754,53.2627078 C50.1447523,55.943531 46.7854849,57.3353769 42.75,57.4380231 L14.25,57.4380231 C10.2142924,57.3355996 6.85613838,55.9437536 4.17531524,53.2627078 C1.4944921,50.5821074 0.102423475,47.22284 0,43.1882457 L0,14.6875778 C0.102423475,10.6518702 1.49426944,7.29371613 4.17531524,4.612893 C6.85613838,1.9318472 10.2142924,0.539778573 14.25,0.437355098 L42.75,0.437355098 C46.7854849,0.539778573 50.1447523,1.93162454 52.8255754,4.61267034 Z M48.8945179,27.5466224 C47.9987578,26.6555382 47.5331763,25.537341 47.4962148,24.192031 L47.4962148,14.6875778 C47.4677143,13.3422677 47.0059181,12.2222892 46.1110486,11.3274198 C45.2159565,10.4316597 44.0950874,9.97075406 42.75,9.94247627 L38.0046759,9.94247627 L38.0046759,33.6837925 L18.9962148,9.94203095 L14.25,9.94203095 C12.9046899,9.9705314 11.7847115,10.431437 10.889842,11.3271971 C9.99408194,12.2222892 9.5331763,13.3422677 9.50489851,14.6871324 L9.50489851,24.192031 C9.46771434,25.537341 9.00213285,26.6555382 8.10637276,27.5466224 C7.21128065,28.4365934 6.09130221,28.9003936 4.74621478,28.9373551 C6.09130221,28.9752073 7.2115033,29.4390075 8.1061501,30.3289784 C9.00213285,31.2200626 9.46771434,32.3382598 9.50467585,33.6835699 L9.50467585,43.1880231 C9.5331763,44.5322199 9.99408194,45.6533116 10.889842,46.548181 C11.7849341,47.4432732 12.9049126,47.9048468 14.2497773,47.9331246 L18.9962148,47.9331246 L18.9962148,24.1922536 L38.0046759,47.9337925 L42.75,47.9337925 C44.0950874,47.9052921 45.2161792,47.4434958 46.1110486,46.5486264 C47.0061407,45.6535343 47.4677143,44.5326652 47.4959921,43.1886911 L47.4959921,33.6837925 C47.5331763,32.3384825 47.9987578,31.2202853 48.8945179,30.3292011 C49.78961,29.4392301 50.9095884,28.9754299 52.2546759,28.9375778 C50.9095884,28.9003936 49.7893873,28.436816 48.8947405,27.5468451 L48.8945179,27.5466224 Z" id="Shape"></path>
                </g>
            </g>
        </g>
    </g>
</svg>