<?xml version="1.0" encoding="UTF-8"?>
<svg width="359px" height="294px" viewBox="0 0 359 294" version="1.1" xmlns="http://www.w3.org/2000/svg" xmlns:xlink="http://www.w3.org/1999/xlink">
    <!-- Generator: Sketch 51.2 (57519) - http://www.bohemiancoding.com/sketch -->
    <title>nativescript_with_angular_pro_1</title>
    <desc>Created with Sketch.</desc>
    <defs></defs>
    <g id="source_illustrations" stroke="none" stroke-width="1" fill="none" fill-rule="evenodd">
        <g id="nativescript_with_angular_pro" transform="translate(2.000000, 0.000000)">
            <g id="nativescript_with_angular_pro_image" transform="translate(90.000000, 50.000000)">
                <g id="circle_bg" transform="translate(2.000000, 17.000000)">
                    <circle id="circle_2" fill="#0C3E91" cx="87" cy="87" r="83"></circle>
                    <circle id="circle_1" stroke="#0B49AF" cx="87" cy="87" r="87"></circle>
                    <rect id="rectangle" fill="#1550B1" transform="translate(51.677670, 39.677670) rotate(-315.000000) translate(-51.677670, -39.677670) " x="39.1776695" y="27.1776695" width="25" height="25"></rect>
                    <rect id="rectangle" fill="#1550B1" transform="translate(114.677670, 132.677670) rotate(-315.000000) translate(-114.677670, -132.677670) " x="102.17767" y="120.17767" width="25" height="25"></rect>
                    <rect id="rectangle" fill="#1148A3" transform="translate(145.516504, 120.516504) rotate(-315.000000) translate(-145.516504, -120.516504) " x="138.78732" y="113.78732" width="13.4583694" height="13.4583694"></rect>
                </g>
                <g id="lines" transform="translate(0.000000, 37.000000)" fill-rule="nonzero">
                    <polygon id="Path-28" fill="#367BEE" points="178.689767 19.5675403 179.191678 20.4324597 125.249388 51.7350491 124.747477 50.8701297"></polygon>
                    <polygon id="Path-28" fill="#276BDB" points="183.689767 10.5675403 184.191678 11.4324597 130.249388 42.7350491 129.747477 41.8701297"></polygon>
                    <polygon id="Path-28" fill="#185AC8" points="189.689767 0.567540299 190.191678 1.4324597 136.249388 32.7350491 135.747477 31.8701297"></polygon>
                    <polygon id="Path-28" fill="#185AC8" points="54.6897675 109.56754 55.1916782 110.43246 1.24938776 141.735049 0.747476982 140.87013"></polygon>
                    <polygon id="Path-28" fill="#276BDB" points="59.6897675 100.56754 60.1916782 101.43246 6.24938776 132.735049 5.74747698 131.87013"></polygon>
                    <polygon id="Path-28" fill="#367BEE" points="65.6897675 90.5675403 66.1916782 91.4324597 12.2493878 122.735049 11.747477 121.87013"></polygon>
                </g>
                <g id="Angular_badge" transform="translate(41.000000, 53.000000)" fill-rule="nonzero">
                    <polygon id="Shape" fill="#DD0031" points="48.5 0 48.5 0 48.5 0 0.464361702 17.1297872 7.79095745 80.6441489 48.5 103.191489 48.5 103.191489 48.5 103.191489 89.2090426 80.6441489 96.5356383 17.1297872"></polygon>
                    <polygon id="Shape" fill="#C3002F" points="48.5 0 48.5 11.4542553 48.5 11.4026596 48.5 63.6691489 48.5 63.6691489 48.5 103.191489 48.5 103.191489 89.2090426 80.6441489 96.5356383 17.1297872"></polygon>
                </g>
                <g id="logo" transform="translate(64.000000, 79.000000)">
                    <rect id="circle_2" fill="#FFFFFF" x="0" y="0" width="49" height="49" rx="20"></rect>
                    <path d="M24.5,3.0625 C12.6603957,3.0625 3.0625,12.6603957 3.0625,24.5 C3.0625,36.3396043 12.6603957,45.9375 24.5,45.9375 C36.3396043,45.9375 45.9375,36.3396043 45.9375,24.5 C45.9375,12.6603957 36.3396043,3.0625 24.5,3.0625 Z M24.5,1.8375 C37.0161531,1.8375 47.1625,11.9838469 47.1625,24.5 C47.1625,37.0161531 37.0161531,47.1625 24.5,47.1625 C11.9838469,47.1625 1.8375,37.0161531 1.8375,24.5 C1.8375,11.9838469 11.9838469,1.8375 24.5,1.8375 Z" id="circle_1" fill="#FFC4D0" fill-rule="nonzero"></path>
                    <path d="M38.5593691,24.2064365 C37.9509923,23.6012425 37.6347816,22.8418013 37.6096783,21.9281127 L37.6096783,15.4730131 C37.5903215,14.5593245 37.2766816,13.7986734 36.6689098,13.1909087 C36.0609867,12.5825391 35.2997218,12.2695078 34.3861737,12.2503024 L31.1632741,12.2503024 L31.1632741,28.3745926 L18.2532261,12.25 L15.0297215,12.25 C14.1160222,12.2693565 13.3553623,12.5823879 12.7475904,13.1907575 C12.1392137,13.7986734 11.8261787,14.5593245 11.8069731,15.4727107 L11.8069731,21.9281127 C11.7817186,22.8418013 11.4655079,23.6012425 10.8571311,24.2064365 C10.2492081,24.8108743 9.48854808,25.1258716 8.575,25.1509746 C9.48854808,25.1766824 10.2493593,25.4916797 10.8569799,26.0961175 C11.4655079,26.7013115 11.7817186,27.4607527 11.8068219,28.3744413 L11.8068219,34.8295409 C11.8261787,35.7424734 12.1392137,36.5038806 12.7475904,37.1116453 C13.3555135,37.7195612 14.1161735,38.0330463 15.0295703,38.0522516 L18.2532261,38.0522516 L18.2532261,21.9282639 L31.1632741,38.0527052 L34.3861737,38.0527052 C35.2997218,38.0333487 36.0611379,37.7197125 36.6689098,37.1119477 C37.2768328,36.5040318 37.5903215,35.7427758 37.6095271,34.8299946 L37.6095271,28.3745926 C37.6347816,27.4609039 37.9509923,26.7014627 38.5593691,26.0962687 C39.1672921,25.4918309 39.9279521,25.1768337 40.8415002,25.1511258 C39.9279521,25.1258716 39.1671409,24.8110255 38.5595203,24.2065877 L38.5593691,24.2064365 Z" id="Path" fill="#FF5579"></path>
                </g>
            </g>
        </g>
    </g>
</svg>