<svg width="360" height="294" viewBox="0 0 360 294" fill="none" xmlns="http://www.w3.org/2000/svg">
<g clip-path="url(#clip0_2_928)">
<path d="M255.148 96.9031C245.683 82.7794 232.367 71.4535 216.704 64.4277" stroke="#D55CFF"/>
<path d="M256.176 88.7394C250.622 81.5301 244.086 75.1157 236.768 69.6963" stroke="#D55CFF"/>
<circle cx="179.5" cy="147.5" r="83" fill="#0C3E91"/>
<path fill-rule="evenodd" clip-rule="evenodd" d="M92 147.5C92 195.825 131.175 235 179.5 235C227.825 235 267 195.825 267 147.5C267 99.1751 227.825 60 179.5 60C131.175 60 92 99.1751 92 147.5ZM266 147.5C266 195.273 227.273 234 179.5 234C131.727 234 93 195.273 93 147.5C93 99.7274 131.727 61 179.5 61C227.273 61 266 99.7274 266 147.5Z" fill="#0B49AF"/>
<path d="M109.579 179.71C115.284 192.763 124.697 203.826 136.486 211.566" stroke="#FFDD97"/>
<path d="M119.967 187.182C123.853 193.216 128.694 198.576 134.278 203.047" stroke="#FFDD97"/>
<path d="M214.29 156.703L214.291 156.704C214.72 157.012 214.975 157.507 214.975 158.035V174.685C214.975 175.347 214.576 175.945 213.962 176.199C213.962 176.199 213.962 176.199 213.962 176.199L183.321 188.865C183.32 188.865 183.32 188.865 183.319 188.865C183.117 188.949 182.904 188.99 182.693 188.99C182.374 188.99 182.056 188.898 181.781 188.714M214.29 156.703L190.511 164.074M214.29 156.703C213.86 156.396 213.309 156.315 212.809 156.484L212.809 156.485L213.13 157.429C212.809 156.485 212.809 156.485 212.809 156.485L212.808 156.485L212.805 156.486L212.793 156.49L212.747 156.506L212.565 156.568L211.875 156.802L209.409 157.642L201.884 160.202C196.853 161.914 191.755 163.649 190.697 164.01M214.29 156.703L190.511 164.074M181.781 188.714L182.338 187.883L181.782 188.714C181.782 188.714 181.782 188.714 181.781 188.714ZM181.781 188.714C181.327 188.409 181.054 187.898 181.054 187.352V156.724C181.054 156.03 181.492 155.411 182.146 155.18L182.146 155.18C182.8 154.949 183.529 155.154 183.966 155.693L183.966 155.694L190.697 164.01M190.697 164.01C190.601 164.043 190.538 164.065 190.511 164.074M190.697 164.01L190.795 164.132L190.807 164.147L190.817 164.159L190.815 164.157L190.811 164.152L190.804 164.143C190.801 164.14 190.799 164.137 190.797 164.134C190.796 164.133 190.795 164.133 190.795 164.132C190.794 164.131 190.794 164.13 190.793 164.13C190.787 164.123 190.783 164.119 190.781 164.116C190.777 164.113 190.771 164.107 190.758 164.099C190.72 164.076 190.615 164.039 190.511 164.074" fill="#FFA4B7" stroke="#35C9F5" stroke-width="2"/>
<path d="M180.043 132.065L180.037 132.067L146.041 141.669L146.041 141.669C145.697 141.766 145.392 141.974 145.175 142.264C145.175 142.264 145.175 142.264 145.175 142.264C145.174 142.264 145.174 142.264 145.174 142.265L139.326 150.083C139.326 150.083 139.326 150.083 139.326 150.083C139.012 150.503 138.919 151.048 139.073 151.548L139.073 151.549C139.229 152.05 139.614 152.447 140.111 152.616L140.112 152.616L168.858 162.376L168.859 162.376C169.029 162.434 169.206 162.463 169.385 162.463C169.87 162.463 170.341 162.247 170.657 161.857L170.657 161.857L178.292 152.442L180.046 152.925C180.046 152.925 180.046 152.925 180.047 152.925C180.33 153.003 180.63 153.004 180.913 152.926C180.925 152.923 180.94 152.92 180.955 152.915L182.708 152.433L190.343 161.848L190.343 161.848C190.66 162.238 191.131 162.454 191.615 162.454C191.792 162.454 191.97 162.425 192.141 162.367L192.142 162.367L220.888 152.607L220.889 152.607C221.386 152.438 221.771 152.041 221.927 151.54L221.927 151.538C222.081 151.039 221.988 150.494 221.674 150.073L215.825 142.255C215.825 142.255 215.825 142.255 215.825 142.255C215.609 141.966 215.304 141.757 214.958 141.66L180.964 132.058C180.963 132.058 180.963 132.058 180.963 132.058C180.627 131.963 180.281 131.999 180.043 132.065ZM180.518 136.772L201.121 142.559L180.518 148.205L159.884 142.566L180.518 136.772Z" fill="#FFA4B7" stroke="#35C9F5" stroke-width="2"/>
<path d="M170.303 164.02C169.245 163.659 164.147 161.923 159.116 160.211L151.591 157.651L149.125 156.811L148.435 156.577L148.254 156.515L148.207 156.499L148.195 156.495L148.192 156.494L148.192 156.494C148.191 156.494 148.191 156.494 147.869 157.44L148.191 156.494L148.191 156.494C147.691 156.324 147.14 156.405 146.71 156.712L146.709 156.713C146.28 157.021 146.025 157.517 146.025 158.045V174.694C146.025 175.358 146.425 175.955 147.038 176.208L147.038 176.208L177.681 188.875C177.681 188.875 177.682 188.875 177.682 188.876C177.883 188.959 178.096 189 178.307 189C178.626 189 178.944 188.907 179.219 188.723M170.303 164.02L179.219 188.723M170.303 164.02L177.034 155.703C177.471 155.162 178.201 154.958 178.854 155.189L170.303 164.02ZM179.219 188.723C179.219 188.723 179.218 188.723 179.218 188.723L178.663 187.893L179.219 188.723Z" fill="#FFA4B7" stroke="#35C9F5" stroke-width="2"/>
<path d="M213.466 156.809L213.467 156.81C213.891 157.111 214.148 157.599 214.148 158.125V174.169C214.148 174.829 213.746 175.416 213.142 175.663C213.142 175.663 213.141 175.663 213.141 175.663L183.257 187.869C183.256 187.869 183.255 187.869 183.254 187.87C183.056 187.951 182.846 187.991 182.638 187.991C182.326 187.991 182.012 187.901 181.741 187.721M213.466 156.809L190.259 163.909M213.466 156.809C213.041 156.508 212.498 156.43 212.007 156.595L212.007 156.595M213.466 156.809L212.007 156.595M181.741 187.721L182.292 186.887L181.741 187.722C181.741 187.722 181.741 187.721 181.741 187.721ZM181.741 187.721C181.29 187.424 181.016 186.92 181.016 186.376V156.862C181.016 156.17 181.457 155.563 182.1 155.338L182.101 155.338C182.742 155.114 183.461 155.311 183.896 155.841L183.896 155.841L190.451 163.844M190.451 163.844C190.35 163.878 190.285 163.9 190.259 163.909M190.451 163.844C191.506 163.488 196.461 161.822 201.351 160.178L208.69 157.71L211.096 156.901L211.769 156.675L211.946 156.616L211.991 156.6L212.003 156.596L212.006 156.595L212.006 156.595C212.007 156.595 212.007 156.595 212.325 157.543M190.451 163.844L190.556 163.972L190.569 163.987L190.578 164L190.576 163.997L190.572 163.992L190.565 163.983C190.562 163.979 190.559 163.975 190.556 163.972C190.555 163.971 190.554 163.971 190.554 163.97C190.548 163.962 190.543 163.958 190.54 163.955C190.535 163.95 190.527 163.943 190.513 163.934C190.472 163.91 190.365 163.873 190.259 163.909M190.259 163.909L212.325 157.543M212.325 157.543L212.007 156.595M212.325 157.543L212.007 156.595" fill="#BA39E6" stroke="#04317C" stroke-width="2"/>
<path d="M180.051 133.063L180.051 133.063C180.285 132.999 180.625 132.964 180.955 133.056L180.051 133.063ZM180.051 133.063L180.045 133.065M180.051 133.063L180.045 133.065M140.327 150.435L146.03 142.901L140.327 150.435ZM140.327 150.435C140.327 150.435 140.327 150.435 140.327 150.435C140.012 150.85 139.918 151.391 140.073 151.888L140.074 151.889C140.23 152.386 140.615 152.774 141.104 152.938L141.104 152.938L169.141 162.343L169.142 162.343C169.309 162.399 169.484 162.428 169.659 162.428C170.135 162.428 170.6 162.218 170.916 161.835L170.916 161.835L178.353 152.774L180.054 153.236L140.327 150.435ZM180.045 133.065L146.888 142.318L146.888 142.318M180.045 133.065L146.888 142.318M146.888 142.318C146.55 142.412 146.247 142.615 146.031 142.901L146.888 142.318ZM214.111 142.309L180.956 133.056L180.055 153.236C180.334 153.312 180.628 153.313 180.906 153.238C180.918 153.235 180.932 153.231 180.948 153.227L182.647 152.765L190.084 161.826L190.085 161.826C190.4 162.21 190.866 162.419 191.341 162.419C191.515 162.419 191.689 162.391 191.858 162.335L191.859 162.335L219.896 152.929L219.896 152.929C220.385 152.765 220.77 152.377 220.926 151.88L220.927 151.878C221.082 151.382 220.988 150.841 220.673 150.426L214.97 142.892C214.969 142.892 214.969 142.892 214.969 142.892C214.754 142.607 214.452 142.404 214.112 142.309C214.111 142.309 214.111 142.309 214.111 142.309ZM180.517 148.616L160.528 143.218L180.518 137.672L200.478 143.211L180.517 148.616Z" fill="#BA39E6" stroke="#04317C" stroke-width="2"/>
<path d="M170.549 163.853C169.494 163.497 164.539 161.831 159.649 160.186L152.31 157.719L149.904 156.91L149.231 156.684L149.054 156.624L149.009 156.609L148.997 156.605L148.994 156.604L148.994 156.604C148.994 156.604 148.994 156.604 148.675 157.551L148.994 156.604L148.993 156.604C148.502 156.439 147.959 156.517 147.535 156.817L147.534 156.818C147.109 157.119 146.852 157.608 146.852 158.134V174.178C146.852 174.839 147.255 175.426 147.858 175.672L147.859 175.672L177.745 187.879C177.944 187.96 178.153 188 178.362 188C178.675 188 178.988 187.91 179.259 187.73L170.549 163.853ZM170.549 163.853L177.104 155.85L170.549 163.853Z" fill="#BA39E6" stroke="#04317C" stroke-width="2"/>
<g clip-path="url(#clip1_2_928)">
<path d="M106.827 213.409V230.818H180H253.173V213.409V196H180H106.827V213.409ZM251.147 213.409V228.77H180H108.853V213.409V198.048H180H251.147V213.409Z" fill="#35C9F5"/>
<path d="M109.92 213.409V227.663H180H250.08V213.409V199.155H180H109.92V213.409Z" fill="#35C9F5"/>
<path d="M88 208.649C88 208.665 90.848 212.252 94.3253 216.62C98.7413 222.177 100.635 224.591 100.597 224.635C100.437 224.845 88.0693 241.873 88.032 241.934C88 241.983 91.9947 242 107.931 242L127.867 241.994L120.827 238.867C116.955 237.151 112.043 234.964 109.909 234.018L106.027 232.296V220.456V208.621H97.0133C92.0587 208.621 88 208.632 88 208.649Z" fill="#35C9F5"/>
<path d="M253.973 220.456V232.296L250.096 234.018C247.957 234.964 243.045 237.151 239.173 238.867L232.133 241.994L252.069 242C268.005 242 272 241.983 271.968 241.928C271.931 241.873 259.563 224.845 259.403 224.635C259.365 224.591 261.259 222.177 265.675 216.62C269.152 212.252 272 208.665 272 208.649C272 208.632 267.947 208.621 262.987 208.621H253.973V220.456Z" fill="#35C9F5"/>
<path d="M106.933 231.809C106.992 231.842 126.827 240.66 128.576 241.43L128.747 241.502V236.63V231.759H117.803C111.637 231.759 106.891 231.781 106.933 231.809Z" fill="#35C9F5"/>
<path d="M231.253 236.63V241.502L231.429 241.43C233.173 240.66 253.008 231.842 253.067 231.809C253.109 231.781 248.363 231.759 242.203 231.759H231.253V236.63Z" fill="#35C9F5"/>
</g>
<path d="M145 52.0995L179.535 40L215 51.8843L209.258 96.8136L179.535 113L150.277 97.0287L145 52.0995Z" fill="#04317C" stroke="#BA39E6" stroke-width="0.5"/>
<path d="M215 51.8843L179.314 40V113L209.222 96.8406L215 51.8843Z" fill="#04317C"/>
<path d="M148 54.105L179.575 43L212 53.9075L206.75 95.144L179.575 110L152.825 95.3414L148 54.105Z" fill="#E23237"/>
<path d="M212 53.9075L179.373 43V110L206.717 95.1688L212 53.9075Z" fill="#B52E31"/>
<path fill-rule="evenodd" clip-rule="evenodd" d="M195.383 74.438C194.685 73.7578 194.323 72.9043 194.294 71.8774V64.6224C194.272 63.5955 193.912 62.7406 193.215 62.0575C192.518 61.3737 191.645 61.0219 190.598 61.0003H186.902V79.1226L172.098 61H168.402C167.354 61.0218 166.482 61.3736 165.785 62.0573C165.087 62.7406 164.728 63.5955 164.706 64.622V71.8774C164.677 72.9043 164.315 73.7578 163.617 74.438C162.92 75.1173 162.048 75.4714 161 75.4996C162.048 75.5285 162.92 75.8825 163.617 76.5618C164.315 77.242 164.677 78.0956 164.706 79.1225V86.3774C164.728 87.4035 165.087 88.2593 165.785 88.9423C166.482 89.6256 167.354 89.9779 168.401 89.9995H172.098V71.8775L186.902 90H190.598C191.645 89.9782 192.518 89.6257 193.215 88.9427C193.912 88.2594 194.272 87.4038 194.294 86.378V79.1226C194.323 78.0957 194.685 77.2422 195.383 76.562C196.08 75.8827 196.952 75.5286 198 75.4997C196.952 75.4714 196.08 75.1175 195.383 74.4382L195.383 74.438Z" fill="white"/>
<path d="M180.5 137L203 143L180.5 149L158 143L180.5 137Z" fill="#04317C"/>
<path d="M180.5 137L203 143L180.5 149L158 143L180.5 137Z" fill="#04317C"/>
<line x1="162.5" y1="132" x2="162.5" y2="113" stroke="#FFDD97"/>
<line x1="195.5" y1="130" x2="195.5" y2="111" stroke="#FFDD97"/>
<line x1="183.5" y1="143" x2="183.5" y2="124" stroke="#FFDD97"/>
<line x1="174.5" y1="139" x2="174.5" y2="120" stroke="#FFDD97"/>
<path fill-rule="evenodd" clip-rule="evenodd" d="M93.5917 130.709L127.709 119.985L116.985 85.8677L82.8677 96.5917L93.5917 130.709ZM86.3169 98.3915L115.186 89.3173L124.26 118.186L95.3911 127.26L86.3169 98.3915Z" fill="#2165D4"/>
<rect x="110.687" y="97.9404" width="16.5062" height="16.5062" transform="rotate(72.5508 110.687 97.9404)" fill="#FF97AD"/>
<path fill-rule="evenodd" clip-rule="evenodd" d="M231.209 181.599L244.599 177.39L240.39 164L227 168.209L231.209 181.599ZM228.354 168.915L239.684 165.354L243.245 176.684L231.915 180.245L228.354 168.915Z" fill="#2165D4"/>
<rect x="237.918" y="168.738" width="6.47812" height="6.47812" transform="rotate(72.5508 237.918 168.738)" fill="#FF97AD"/>
<path fill-rule="evenodd" clip-rule="evenodd" d="M255.372 177.554L284.109 154.639L261.193 125.902L232.456 148.818L255.372 177.554ZM235.175 149.124L260.886 128.621L281.39 154.332L255.678 174.836L235.175 149.124Z" fill="#2165D4"/>
<rect x="260.121" y="135.417" width="23.2136" height="23.2136" transform="rotate(51.4295 260.121 135.417)" fill="#1A68EB"/>
<rect x="131.288" y="146.144" width="21.417" height="21.417" transform="rotate(135 131.288 146.144)" fill="#1550B1"/>
<rect x="251.775" y="119.617" width="21.417" height="34.6308" transform="rotate(145.665 251.775 119.617)" fill="#1550B1"/>
<path d="M128.166 209.498C128.166 209.507 128.161 209.526 128.152 209.554C128.143 209.573 128.133 209.591 128.124 209.61C128.068 209.741 127.989 209.853 127.886 209.946C127.783 210.039 127.676 210.119 127.564 210.184C127.452 210.249 127.34 210.296 127.228 210.324C127.116 210.352 127.018 210.361 126.934 210.352C126.682 210.333 126.421 210.291 126.15 210.226C125.879 210.151 125.623 210.067 125.38 209.974C125.371 209.974 125.343 209.96 125.296 209.932C125.259 209.904 125.24 209.881 125.24 209.862C125.24 209.843 125.254 209.829 125.282 209.82C125.31 209.811 125.333 209.801 125.352 209.792C125.408 209.773 125.483 209.759 125.576 209.75C125.669 209.741 125.763 209.736 125.856 209.736C125.959 209.736 126.057 209.741 126.15 209.75C126.243 209.75 126.323 209.755 126.388 209.764C126.537 209.792 126.696 209.811 126.864 209.82C127.032 209.82 127.195 209.811 127.354 209.792C127.513 209.773 127.657 209.741 127.788 209.694C127.919 209.647 128.021 209.582 128.096 209.498C128.143 209.451 128.166 209.451 128.166 209.498ZM128.278 209.078L128.236 209.134C128.068 209.367 127.867 209.512 127.634 209.568C127.41 209.624 127.172 209.638 126.92 209.61C126.668 209.582 126.407 209.535 126.136 209.47C125.875 209.405 125.618 209.367 125.366 209.358C125.039 209.339 124.708 209.414 124.372 209.582C124.036 209.741 123.747 210.03 123.504 210.45C123.485 210.497 123.467 210.515 123.448 210.506C123.439 210.506 123.434 210.492 123.434 210.464C123.443 210.427 123.453 210.399 123.462 210.38C123.555 210.1 123.672 209.867 123.812 209.68C123.952 209.493 124.101 209.344 124.26 209.232C124.428 209.12 124.596 209.041 124.764 208.994C124.941 208.947 125.114 208.924 125.282 208.924C125.749 207.935 126.295 207.034 126.92 206.222C127.555 205.41 128.241 204.724 128.978 204.164C129.006 204.145 129.029 204.127 129.048 204.108C129.076 204.08 129.099 204.071 129.118 204.08C129.137 204.08 129.132 204.103 129.104 204.15C129.076 204.187 129.057 204.211 129.048 204.22C128.451 204.864 127.867 205.587 127.298 206.39C126.738 207.183 126.234 208.037 125.786 208.952C125.823 208.971 125.861 208.98 125.898 208.98C125.945 208.98 125.987 208.985 126.024 208.994C126.127 208.761 126.239 208.513 126.36 208.252C126.491 207.981 126.635 207.711 126.794 207.44C126.953 207.151 127.125 206.875 127.312 206.614C127.508 206.343 127.699 206.096 127.886 205.872C128.082 205.648 128.259 205.447 128.418 205.27C128.577 205.093 128.703 204.953 128.796 204.85C128.833 204.813 128.866 204.78 128.894 204.752C128.931 204.724 128.959 204.715 128.978 204.724C128.997 204.733 128.997 204.757 128.978 204.794C128.959 204.831 128.941 204.864 128.922 204.892C128.81 205.116 128.67 205.377 128.502 205.676C128.343 205.965 128.171 206.269 127.984 206.586C127.807 206.894 127.629 207.207 127.452 207.524C127.275 207.832 127.116 208.112 126.976 208.364C126.911 208.485 126.841 208.607 126.766 208.728C126.701 208.84 126.64 208.961 126.584 209.092C126.649 209.092 126.719 209.106 126.794 209.134C126.999 208.714 127.214 208.303 127.438 207.902C127.671 207.491 127.923 207.081 128.194 206.67C128.231 206.623 128.25 206.595 128.25 206.586C128.259 206.567 128.273 206.567 128.292 206.586C128.301 206.595 128.297 206.637 128.278 206.712C128.175 206.983 128.021 207.342 127.816 207.79C127.62 208.238 127.419 208.705 127.214 209.19C127.401 209.209 127.578 209.209 127.746 209.19C127.914 209.171 128.077 209.125 128.236 209.05C128.245 209.05 128.255 209.05 128.264 209.05C128.273 209.041 128.278 209.05 128.278 209.078ZM124.554 209.904C124.554 209.941 124.521 209.988 124.456 210.044C124.4 210.091 124.363 210.119 124.344 210.128L123.952 210.394C123.877 210.469 123.812 210.539 123.756 210.604C123.7 210.669 123.639 210.749 123.574 210.842C123.555 210.861 123.541 210.879 123.532 210.898C123.532 210.917 123.523 210.926 123.504 210.926C123.495 210.926 123.49 210.889 123.49 210.814C123.49 210.777 123.495 210.739 123.504 210.702C123.551 210.571 123.597 210.464 123.644 210.38C123.691 210.287 123.775 210.189 123.896 210.086C123.943 210.049 124.003 210.011 124.078 209.974C124.153 209.937 124.223 209.909 124.288 209.89C124.363 209.862 124.423 209.848 124.47 209.848C124.526 209.848 124.554 209.867 124.554 209.904ZM125.03 210.814C124.899 211.169 124.792 211.519 124.708 211.864C124.624 212.209 124.545 212.559 124.47 212.914C124.367 213.437 124.293 213.973 124.246 214.524C124.209 215.065 124.199 215.597 124.218 216.12C124.246 216.652 124.302 217.165 124.386 217.66C124.479 218.155 124.605 218.612 124.764 219.032C124.783 219.079 124.797 219.116 124.806 219.144C124.825 219.181 124.825 219.2 124.806 219.2C124.778 219.2 124.75 219.181 124.722 219.144C124.461 218.715 124.255 218.243 124.106 217.73C123.957 217.226 123.859 216.689 123.812 216.12C123.775 215.551 123.779 214.963 123.826 214.356C123.882 213.749 123.975 213.138 124.106 212.522C124.227 211.906 124.381 211.304 124.568 210.716C124.493 210.697 124.428 210.683 124.372 210.674C124.316 210.665 124.26 210.651 124.204 210.632C124.185 210.623 124.157 210.613 124.12 210.604C124.083 210.585 124.064 210.567 124.064 210.548C124.064 210.529 124.078 210.515 124.106 210.506C124.134 210.497 124.157 210.487 124.176 210.478C124.512 210.357 124.853 210.31 125.198 210.338C125.543 210.366 125.893 210.413 126.248 210.478C126.463 210.515 126.682 210.543 126.906 210.562C127.139 210.581 127.377 210.543 127.62 210.45C127.657 210.431 127.676 210.431 127.676 210.45C127.676 210.459 127.657 210.492 127.62 210.548C127.517 210.707 127.363 210.814 127.158 210.87C126.962 210.917 126.757 210.945 126.542 210.954C126.411 211.346 126.299 211.715 126.206 212.06C126.122 212.405 126.057 212.699 126.01 212.942L125.17 216.848C125.151 216.932 125.137 217.002 125.128 217.058C125.119 217.123 125.105 217.147 125.086 217.128C125.058 217.147 125.039 217.114 125.03 217.03C125.03 216.955 125.03 216.881 125.03 216.806C125.03 215.901 125.114 214.949 125.282 213.95C125.459 212.942 125.721 211.939 126.066 210.94C126.01 210.921 125.959 210.912 125.912 210.912C125.875 210.912 125.833 210.907 125.786 210.898C125.646 211.262 125.515 211.626 125.394 211.99C125.282 212.354 125.17 212.713 125.058 213.068C125.058 213.087 125.049 213.119 125.03 213.166C125.021 213.203 125.007 213.245 124.988 213.292C124.969 213.339 124.946 213.381 124.918 213.418C124.899 213.446 124.885 213.46 124.876 213.46C124.867 213.46 124.862 213.441 124.862 213.404C124.871 213.367 124.876 213.325 124.876 213.278C124.885 213.222 124.89 213.171 124.89 213.124C124.899 213.068 124.904 213.031 124.904 213.012C124.923 212.751 124.974 212.424 125.058 212.032C125.142 211.631 125.235 211.239 125.338 210.856C125.226 210.856 125.123 210.842 125.03 210.814ZM125.198 219.144C125.179 219.153 125.147 219.135 125.1 219.088C125.081 219.069 125.067 219.051 125.058 219.032C125.002 218.939 124.951 218.85 124.904 218.766C124.867 218.691 124.829 218.603 124.792 218.5C124.755 218.407 124.717 218.29 124.68 218.15C124.652 218.01 124.624 217.833 124.596 217.618C124.568 217.459 124.549 217.254 124.54 217.002C124.531 216.759 124.526 216.521 124.526 216.288C124.526 216.055 124.535 215.854 124.554 215.686C124.573 215.518 124.596 215.434 124.624 215.434C124.643 215.434 124.661 215.467 124.68 215.532C124.699 215.607 124.713 215.691 124.722 215.784C124.731 215.877 124.736 215.966 124.736 216.05C124.745 216.143 124.75 216.209 124.75 216.246L124.876 217.534C124.904 217.786 124.946 218.029 125.002 218.262C125.058 218.495 125.119 218.729 125.184 218.962C125.193 218.999 125.198 219.037 125.198 219.074C125.207 219.121 125.207 219.144 125.198 219.144ZM129.432 210.338C129.358 210.655 129.25 210.991 129.11 211.346C128.98 211.691 128.83 212.013 128.662 212.312C128.662 212.331 128.648 212.363 128.62 212.41C128.602 212.447 128.574 212.466 128.536 212.466C128.518 212.466 128.504 212.438 128.494 212.382C128.494 212.326 128.499 212.289 128.508 212.27C128.508 212.121 128.527 211.925 128.564 211.682C128.602 211.43 128.648 211.225 128.704 211.066C128.723 211.01 128.751 210.875 128.788 210.66C128.835 210.445 128.872 210.207 128.9 209.946C128.938 209.675 128.956 209.419 128.956 209.176C128.966 208.924 128.938 208.737 128.872 208.616V208.56C128.91 208.532 128.952 208.541 128.998 208.588C129.12 208.691 129.213 208.817 129.278 208.966C129.353 209.115 129.404 209.274 129.432 209.442C129.47 209.601 129.484 209.759 129.474 209.918C129.474 210.077 129.46 210.217 129.432 210.338ZM129.978 210.282C130.081 210.151 130.179 210.058 130.272 210.002C130.366 209.946 130.459 209.899 130.552 209.862C130.562 209.862 130.585 209.857 130.622 209.848C130.66 209.839 130.688 209.848 130.706 209.876C130.725 209.904 130.72 209.937 130.692 209.974C130.664 210.011 130.641 210.039 130.622 210.058C130.557 210.123 130.482 210.198 130.398 210.282C130.324 210.357 130.254 210.431 130.188 210.506C130.095 210.609 130.02 210.73 129.964 210.87C129.908 211.001 129.866 211.136 129.838 211.276C129.997 211.108 130.146 210.949 130.286 210.8C130.436 210.651 130.594 210.511 130.762 210.38C130.977 210.221 131.164 210.016 131.322 209.764C131.481 209.512 131.593 209.143 131.658 208.658C131.677 208.611 131.7 208.583 131.728 208.574C131.756 208.565 131.77 208.597 131.77 208.672C131.798 209.213 131.742 209.643 131.602 209.96C131.462 210.277 131.252 210.543 130.972 210.758C130.823 210.87 130.674 210.991 130.524 211.122C130.375 211.253 130.23 211.397 130.09 211.556C129.96 211.715 129.838 211.901 129.726 212.116C129.614 212.331 129.516 212.578 129.432 212.858C129.367 213.073 129.302 213.278 129.236 213.474C129.171 213.661 129.101 213.843 129.026 214.02C129.008 214.085 128.98 214.118 128.942 214.118C128.914 214.109 128.9 214.062 128.9 213.978C128.854 213.53 128.882 213.087 128.984 212.648C129.096 212.2 129.227 211.738 129.376 211.262C129.442 211.029 129.516 210.795 129.6 210.562C129.694 210.329 129.736 210.063 129.726 209.764C129.726 209.661 129.768 209.554 129.852 209.442C129.936 209.33 130.039 209.227 130.16 209.134C130.282 209.031 130.408 208.947 130.538 208.882C130.669 208.807 130.781 208.756 130.874 208.728C130.958 208.7 131 208.705 131 208.742C131 208.779 130.972 208.826 130.916 208.882C130.72 209.059 130.52 209.269 130.314 209.512C130.118 209.755 130.006 210.011 129.978 210.282ZM128.76 214.986C128.751 214.995 128.742 215 128.732 215C128.732 214.991 128.709 214.972 128.662 214.944C128.382 214.739 128.163 214.515 128.004 214.272C127.846 214.029 127.729 213.782 127.654 213.53C127.589 213.269 127.561 213.012 127.57 212.76C127.58 212.499 127.612 212.247 127.668 212.004C127.743 211.677 127.832 211.355 127.934 211.038C128.046 210.711 128.149 210.399 128.242 210.1C128.336 209.792 128.406 209.493 128.452 209.204C128.499 208.905 128.499 208.621 128.452 208.35C128.452 208.331 128.466 208.317 128.494 208.308C128.504 208.308 128.513 208.317 128.522 208.336C128.532 208.345 128.541 208.355 128.55 208.364C128.728 208.663 128.816 208.971 128.816 209.288C128.816 209.596 128.774 209.913 128.69 210.24C128.606 210.557 128.499 210.884 128.368 211.22C128.247 211.547 128.149 211.878 128.074 212.214C127.981 212.643 127.972 213.101 128.046 213.586C128.13 214.071 128.35 214.505 128.704 214.888C128.723 214.916 128.742 214.935 128.76 214.944C128.779 214.953 128.779 214.967 128.76 214.986ZM129.18 215C129.162 215 129.143 214.995 129.124 214.986L129.068 214.958C128.938 214.874 128.821 214.785 128.718 214.692C128.616 214.589 128.527 214.445 128.452 214.258C128.424 214.193 128.401 214.109 128.382 214.006C128.364 213.894 128.35 213.791 128.34 213.698C128.34 213.605 128.345 213.525 128.354 213.46C128.373 213.395 128.401 213.367 128.438 213.376C128.466 213.376 128.494 213.413 128.522 213.488C128.56 213.563 128.588 213.637 128.606 213.712C128.625 213.815 128.644 213.913 128.662 214.006C128.69 214.099 128.723 214.183 128.76 214.258C128.863 214.491 128.998 214.715 129.166 214.93C129.185 214.977 129.19 215 129.18 215ZM131.462 208.714C131.462 208.91 131.406 209.083 131.294 209.232C131.182 209.381 131.047 209.507 130.888 209.61C130.86 209.629 130.842 209.629 130.832 209.61C130.823 209.582 130.818 209.563 130.818 209.554C130.818 209.498 130.842 209.433 130.888 209.358C130.935 209.274 130.986 209.19 131.042 209.106C131.108 209.013 131.168 208.919 131.224 208.826C131.28 208.733 131.318 208.649 131.336 208.574C131.364 208.527 131.392 208.527 131.42 208.574C131.448 208.621 131.462 208.667 131.462 208.714ZM136.167 211.122C136.195 210.87 136.2 210.604 136.181 210.324C136.162 210.044 136.102 209.787 135.999 209.554C135.906 209.311 135.756 209.111 135.551 208.952C135.355 208.793 135.094 208.714 134.767 208.714C134.328 208.714 133.946 208.835 133.619 209.078C133.292 209.311 133.012 209.605 132.779 209.96C132.546 210.305 132.364 210.679 132.233 211.08C132.102 211.472 132.018 211.831 131.981 212.158C131.925 212.606 131.916 212.993 131.953 213.32C132 213.647 132.079 213.917 132.191 214.132C132.303 214.337 132.443 214.491 132.611 214.594C132.788 214.697 132.98 214.748 133.185 214.748C133.474 214.757 133.778 214.678 134.095 214.51C134.422 214.333 134.725 214.09 135.005 213.782C135.285 213.465 135.528 213.082 135.733 212.634C135.948 212.177 136.092 211.673 136.167 211.122ZM131.659 212.088C131.696 211.715 131.79 211.304 131.939 210.856C132.088 210.408 132.294 209.993 132.555 209.61C132.826 209.227 133.148 208.91 133.521 208.658C133.894 208.397 134.328 208.266 134.823 208.266C135.196 208.266 135.504 208.355 135.747 208.532C135.99 208.709 136.176 208.938 136.307 209.218C136.438 209.489 136.522 209.787 136.559 210.114C136.596 210.431 136.596 210.735 136.559 211.024C136.475 211.696 136.312 212.279 136.069 212.774C135.826 213.269 135.542 213.684 135.215 214.02C134.888 214.347 134.543 214.594 134.179 214.762C133.815 214.921 133.465 215 133.129 215C132.877 215 132.648 214.944 132.443 214.832C132.247 214.72 132.079 214.547 131.939 214.314C131.808 214.071 131.715 213.768 131.659 213.404C131.612 213.031 131.612 212.592 131.659 212.088ZM133.227 214.062C133.18 214.062 133.134 214.048 133.087 214.02C133.04 213.983 133.003 213.941 132.975 213.894C132.947 213.847 132.928 213.801 132.919 213.754C132.91 213.707 132.928 213.675 132.975 213.656C133.003 213.647 133.04 213.679 133.087 213.754C133.134 213.829 133.185 213.866 133.241 213.866C133.334 213.866 133.442 213.805 133.563 213.684C133.694 213.563 133.815 213.423 133.927 213.264C134.048 213.096 134.151 212.933 134.235 212.774C134.328 212.615 134.394 212.499 134.431 212.424C134.468 212.349 134.506 212.256 134.543 212.144C134.58 212.023 134.613 211.901 134.641 211.78C134.678 211.659 134.706 211.542 134.725 211.43C134.753 211.309 134.772 211.206 134.781 211.122C134.828 210.702 134.818 210.38 134.753 210.156C134.688 209.923 134.58 209.806 134.431 209.806C134.319 209.806 134.202 209.843 134.081 209.918C133.96 209.983 133.843 210.072 133.731 210.184C133.628 210.296 133.535 210.422 133.451 210.562C133.367 210.693 133.306 210.828 133.269 210.968C133.222 211.127 133.19 211.206 133.171 211.206C133.143 211.206 133.129 211.127 133.129 210.968C133.157 210.791 133.218 210.618 133.311 210.45C133.404 210.273 133.521 210.119 133.661 209.988C133.801 209.848 133.955 209.736 134.123 209.652C134.291 209.559 134.464 209.512 134.641 209.512C134.818 209.512 134.949 209.577 135.033 209.708C135.126 209.829 135.192 209.983 135.229 210.17C135.266 210.347 135.28 210.534 135.271 210.73C135.271 210.917 135.262 211.066 135.243 211.178C135.206 211.43 135.145 211.677 135.061 211.92C134.986 212.153 134.893 212.391 134.781 212.634C134.725 212.746 134.641 212.886 134.529 213.054C134.417 213.213 134.286 213.367 134.137 213.516C133.997 213.665 133.843 213.796 133.675 213.908C133.516 214.011 133.367 214.062 133.227 214.062ZM133.675 214.328C133.684 214.384 133.638 214.431 133.535 214.468C133.442 214.505 133.344 214.524 133.241 214.524C132.952 214.515 132.728 214.421 132.569 214.244C132.42 214.067 132.312 213.857 132.247 213.614C132.191 213.371 132.163 213.119 132.163 212.858C132.172 212.597 132.186 212.377 132.205 212.2C132.242 211.892 132.317 211.547 132.429 211.164C132.541 210.781 132.7 210.422 132.905 210.086C133.11 209.75 133.362 209.47 133.661 209.246C133.96 209.013 134.314 208.896 134.725 208.896C134.996 208.896 135.21 208.966 135.369 209.106C135.537 209.246 135.658 209.419 135.733 209.624C135.817 209.829 135.864 210.053 135.873 210.296C135.892 210.529 135.887 210.744 135.859 210.94C135.84 211.155 135.808 211.351 135.761 211.528C135.714 211.705 135.649 211.901 135.565 212.116C135.537 212.181 135.5 212.256 135.453 212.34C135.406 212.424 135.355 212.461 135.299 212.452C135.271 212.443 135.262 212.405 135.271 212.34C135.29 212.275 135.308 212.195 135.327 212.102C135.355 211.999 135.383 211.897 135.411 211.794C135.439 211.682 135.458 211.579 135.467 211.486C135.486 211.327 135.495 211.131 135.495 210.898C135.504 210.655 135.486 210.422 135.439 210.198C135.402 209.974 135.327 209.783 135.215 209.624C135.103 209.465 134.935 209.386 134.711 209.386C134.384 209.386 134.081 209.493 133.801 209.708C133.53 209.913 133.292 210.17 133.087 210.478C132.882 210.777 132.714 211.094 132.583 211.43C132.462 211.757 132.387 212.046 132.359 212.298C132.34 212.447 132.336 212.634 132.345 212.858C132.354 213.082 132.387 213.306 132.443 213.53C132.508 213.745 132.611 213.931 132.751 214.09C132.891 214.249 133.082 214.333 133.325 214.342C133.4 214.351 133.47 214.347 133.535 214.328C133.61 214.3 133.656 214.3 133.675 214.328ZM140.51 211.458C140.379 212.018 140.29 212.601 140.244 213.208C140.197 213.815 140.234 214.403 140.356 214.972C140.365 214.991 140.36 215.009 140.342 215.028C140.332 215.056 140.318 215.047 140.3 215C140.141 214.692 140.029 214.379 139.964 214.062C139.908 213.745 139.88 213.432 139.88 213.124C139.88 212.807 139.903 212.489 139.95 212.172C139.996 211.855 140.057 211.542 140.132 211.234C140.141 211.197 140.16 211.122 140.188 211.01C140.216 210.889 140.234 210.772 140.244 210.66C140.262 210.539 140.262 210.445 140.244 210.38C140.225 210.315 140.169 210.315 140.076 210.38C139.861 210.539 139.66 210.739 139.474 210.982C139.296 211.215 139.152 211.444 139.04 211.668C139.03 211.687 139.007 211.743 138.97 211.836C138.942 211.92 138.909 212.013 138.872 212.116C138.844 212.219 138.816 212.321 138.788 212.424C138.76 212.517 138.741 212.578 138.732 212.606C138.657 212.895 138.564 213.171 138.452 213.432C138.34 213.693 138.246 213.936 138.172 214.16C138.144 214.253 138.125 214.295 138.116 214.286C138.069 214.286 138.046 214.244 138.046 214.16C137.999 213.703 138.036 213.264 138.158 212.844C138.288 212.415 138.428 211.976 138.578 211.528C138.671 211.239 138.755 210.954 138.83 210.674C138.914 210.385 138.951 210.067 138.942 209.722C138.932 209.479 139.021 209.241 139.208 209.008C139.404 208.775 139.693 208.579 140.076 208.42C140.3 208.327 140.51 208.285 140.706 208.294C140.902 208.303 141.084 208.345 141.252 208.42C141.42 208.495 141.569 208.602 141.7 208.742C141.83 208.882 141.938 209.036 142.022 209.204C142.078 209.101 142.162 208.994 142.274 208.882C142.386 208.761 142.516 208.658 142.666 208.574C142.824 208.49 142.997 208.429 143.184 208.392C143.38 208.345 143.594 208.341 143.828 208.378C143.996 208.406 144.14 208.462 144.262 208.546C144.392 208.63 144.504 208.728 144.598 208.84C144.7 208.943 144.78 209.05 144.836 209.162C144.892 209.274 144.934 209.367 144.962 209.442C145.064 209.75 145.116 210.095 145.116 210.478C145.125 210.861 145.088 211.206 145.004 211.514C144.864 212.018 144.696 212.466 144.5 212.858C144.313 213.25 144.187 213.6 144.122 213.908C144.094 214.011 144.075 214.062 144.066 214.062C144.028 214.062 144.005 214.043 143.996 214.006C143.996 213.969 143.991 213.931 143.982 213.894C143.963 213.698 143.986 213.451 144.052 213.152C144.126 212.844 144.21 212.517 144.304 212.172C144.397 211.817 144.481 211.458 144.556 211.094C144.63 210.73 144.663 210.394 144.654 210.086C144.644 209.769 144.574 209.493 144.444 209.26C144.313 209.027 144.089 208.868 143.772 208.784C143.52 208.719 143.296 208.719 143.1 208.784C142.913 208.84 142.754 208.905 142.624 208.98C142.428 209.111 142.302 209.251 142.246 209.4C142.19 209.54 142.162 209.675 142.162 209.806C142.32 209.517 142.53 209.288 142.792 209.12C143.053 208.943 143.361 208.91 143.716 209.022C143.949 209.097 144.112 209.237 144.206 209.442C144.308 209.647 144.364 209.876 144.374 210.128C144.383 210.38 144.355 210.632 144.29 210.884C144.234 211.136 144.164 211.346 144.08 211.514C144.07 211.533 144.047 211.579 144.01 211.654C143.972 211.719 143.93 211.747 143.884 211.738C143.874 211.738 143.87 211.701 143.87 211.626C143.879 211.551 143.884 211.495 143.884 211.458C143.912 211.346 143.93 211.215 143.94 211.066C143.949 210.917 143.949 210.763 143.94 210.604C143.94 210.445 143.93 210.291 143.912 210.142C143.893 209.993 143.865 209.867 143.828 209.764C143.781 209.633 143.706 209.549 143.604 209.512C143.51 209.465 143.408 209.451 143.296 209.47C143.184 209.489 143.072 209.526 142.96 209.582C142.857 209.638 142.768 209.699 142.694 209.764C142.488 209.941 142.362 210.105 142.316 210.254C142.269 210.394 142.232 210.557 142.204 210.744C142.316 210.557 142.451 210.385 142.61 210.226C142.778 210.058 142.941 209.923 143.1 209.82C143.184 209.783 143.254 209.769 143.31 209.778C143.375 209.787 143.426 209.815 143.464 209.862C143.51 209.899 143.543 209.951 143.562 210.016C143.58 210.072 143.594 210.123 143.604 210.17C143.632 210.478 143.618 210.749 143.562 210.982C143.515 211.215 143.454 211.458 143.38 211.71C143.314 211.953 143.258 212.228 143.212 212.536C143.174 212.835 143.184 213.208 143.24 213.656C143.286 213.983 143.384 214.277 143.534 214.538C143.683 214.799 143.87 214.963 144.094 215.028C144.159 215.047 144.173 215.061 144.136 215.07C144.108 215.079 144.084 215.084 144.066 215.084C143.898 215.065 143.739 215 143.59 214.888C143.44 214.776 143.305 214.636 143.184 214.468C143.072 214.3 142.978 214.113 142.904 213.908C142.829 213.703 142.787 213.497 142.778 213.292C142.75 212.872 142.773 212.475 142.848 212.102C142.932 211.719 143.011 211.393 143.086 211.122C143.104 211.047 143.123 210.954 143.142 210.842C143.17 210.721 143.179 210.618 143.17 210.534C143.17 210.45 143.142 210.403 143.086 210.394C143.03 210.375 142.936 210.427 142.806 210.548C142.619 210.716 142.456 210.898 142.316 211.094C142.176 211.29 142.073 211.509 142.008 211.752C141.793 212.527 141.485 213.269 141.084 213.978C141.065 214.015 141.042 214.053 141.014 214.09C140.986 214.118 140.967 214.127 140.958 214.118C140.939 214.118 140.934 214.095 140.944 214.048C140.953 214.001 140.962 213.955 140.972 213.908C141.028 213.581 141.098 213.264 141.182 212.956C141.266 212.648 141.345 212.335 141.42 212.018C141.504 211.691 141.574 211.36 141.63 211.024C141.695 210.679 141.732 210.31 141.742 209.918C141.723 209.787 141.695 209.652 141.658 209.512C141.63 209.372 141.536 209.209 141.378 209.022C141.191 208.817 140.972 208.709 140.72 208.7C140.468 208.691 140.262 208.714 140.104 208.77C140.001 208.798 139.889 208.849 139.768 208.924C139.656 208.999 139.548 209.087 139.446 209.19C139.352 209.293 139.273 209.414 139.208 209.554C139.152 209.685 139.138 209.829 139.166 209.988C139.268 209.801 139.385 209.619 139.516 209.442C139.656 209.265 139.833 209.129 140.048 209.036C140.113 209.008 140.197 208.985 140.3 208.966C140.402 208.938 140.51 208.924 140.622 208.924C140.734 208.915 140.846 208.929 140.958 208.966C141.07 209.003 141.168 209.073 141.252 209.176C141.401 209.363 141.48 209.531 141.49 209.68C141.508 209.829 141.513 209.979 141.504 210.128C141.485 210.399 141.443 210.655 141.378 210.898C141.312 211.131 141.228 211.355 141.126 211.57C141.116 211.598 141.093 211.645 141.056 211.71C141.018 211.766 140.99 211.794 140.972 211.794C140.953 211.785 140.939 211.747 140.93 211.682C140.93 211.607 140.939 211.556 140.958 211.528C140.967 211.425 140.981 211.276 141 211.08C141.018 210.875 141.028 210.665 141.028 210.45C141.037 210.226 141.028 210.025 141 209.848C140.972 209.661 140.911 209.531 140.818 209.456C140.734 209.391 140.608 209.372 140.44 209.4C140.272 209.428 140.122 209.493 139.992 209.596C139.861 209.699 139.749 209.797 139.656 209.89C139.572 209.983 139.502 210.081 139.446 210.184C139.39 210.277 139.338 210.385 139.292 210.506C139.254 210.618 139.222 210.753 139.194 210.912C139.306 210.697 139.436 210.497 139.586 210.31C139.735 210.123 139.917 209.965 140.132 209.834C140.281 209.731 140.398 209.689 140.482 209.708C140.566 209.727 140.622 209.778 140.65 209.862C140.687 209.946 140.701 210.053 140.692 210.184C140.692 210.315 140.687 210.436 140.678 210.548C140.659 210.697 140.636 210.851 140.608 211.01C140.58 211.169 140.547 211.318 140.51 211.458ZM144.514 215.028C144.514 215.028 144.49 215.028 144.444 215.028C144.425 215.028 144.402 215.023 144.374 215.014C144.243 214.986 144.103 214.93 143.954 214.846C143.804 214.753 143.678 214.585 143.576 214.342C143.538 214.249 143.51 214.127 143.492 213.978C143.473 213.829 143.464 213.684 143.464 213.544C143.464 213.404 143.473 213.283 143.492 213.18C143.51 213.077 143.538 213.031 143.576 213.04C143.585 213.04 143.594 213.063 143.604 213.11C143.622 213.147 143.636 213.194 143.646 213.25C143.655 213.306 143.664 213.362 143.674 213.418C143.683 213.474 143.688 213.516 143.688 213.544C143.706 213.675 143.73 213.805 143.758 213.936C143.786 214.057 143.823 214.169 143.87 214.272C143.916 214.412 144 214.561 144.122 214.72C144.252 214.869 144.369 214.953 144.472 214.972C144.518 214.991 144.532 215.009 144.514 215.028ZM140.748 215C140.766 215.065 140.766 215.098 140.748 215.098C140.701 215.098 140.664 215.075 140.636 215.028C140.589 214.972 140.542 214.893 140.496 214.79C140.449 214.678 140.43 214.491 140.44 214.23C140.44 214.127 140.449 214.006 140.468 213.866C140.486 213.717 140.505 213.581 140.524 213.46C140.552 213.329 140.58 213.222 140.608 213.138C140.636 213.054 140.668 213.017 140.706 213.026C140.715 213.026 140.72 213.049 140.72 213.096C140.729 213.133 140.734 213.18 140.734 213.236C140.743 213.292 140.748 213.348 140.748 213.404C140.748 213.451 140.748 213.483 140.748 213.502C140.748 213.651 140.743 213.787 140.734 213.908C140.724 214.02 140.72 214.141 140.72 214.272C140.72 214.449 140.72 214.599 140.72 214.72C140.72 214.841 140.729 214.935 140.748 215ZM138.676 210.352C138.573 210.707 138.433 211.057 138.256 211.402C138.088 211.747 137.948 212.079 137.836 212.396C137.826 212.415 137.808 212.452 137.78 212.508C137.761 212.555 137.733 212.573 137.696 212.564C137.677 212.555 137.663 212.527 137.654 212.48C137.654 212.424 137.654 212.382 137.654 212.354C137.654 212.205 137.677 212.009 137.724 211.766C137.78 211.514 137.836 211.309 137.892 211.15C137.91 211.094 137.943 210.954 137.99 210.73C138.046 210.497 138.092 210.245 138.13 209.974C138.176 209.703 138.204 209.442 138.214 209.19C138.232 208.938 138.209 208.756 138.144 208.644C138.106 208.579 138.106 208.546 138.144 208.546C138.172 208.546 138.209 208.569 138.256 208.616C138.368 208.719 138.456 208.845 138.522 208.994C138.596 209.143 138.648 209.302 138.676 209.47C138.713 209.629 138.727 209.787 138.718 209.946C138.718 210.105 138.704 210.24 138.676 210.352ZM137.752 215.014C137.462 214.818 137.238 214.603 137.08 214.37C136.93 214.137 136.828 213.894 136.772 213.642C136.716 213.39 136.692 213.133 136.702 212.872C136.72 212.611 136.758 212.354 136.814 212.102C136.888 211.766 136.982 211.435 137.094 211.108C137.215 210.772 137.327 210.45 137.43 210.142C137.542 209.825 137.626 209.517 137.682 209.218C137.747 208.919 137.756 208.635 137.71 208.364C137.71 208.327 137.714 208.308 137.724 208.308C137.742 208.308 137.766 208.331 137.794 208.378C137.962 208.677 138.041 208.985 138.032 209.302C138.022 209.619 137.971 209.946 137.878 210.282C137.784 210.609 137.668 210.945 137.528 211.29C137.397 211.626 137.294 211.967 137.22 212.312C137.173 212.527 137.14 212.755 137.122 212.998C137.112 213.231 137.131 213.465 137.178 213.698C137.224 213.931 137.299 214.16 137.402 214.384C137.514 214.608 137.663 214.809 137.85 214.986C137.887 215.005 137.896 215.023 137.878 215.042C137.859 215.061 137.836 215.061 137.808 215.042C137.789 215.033 137.77 215.023 137.752 215.014ZM138.284 215.07C138.256 215.089 138.218 215.075 138.172 215.028C138.069 214.953 137.966 214.874 137.864 214.79C137.77 214.706 137.677 214.571 137.584 214.384C137.546 214.319 137.518 214.235 137.5 214.132C137.481 214.029 137.472 213.931 137.472 213.838C137.472 213.735 137.476 213.651 137.486 213.586C137.504 213.521 137.528 213.488 137.556 213.488C137.593 213.497 137.621 213.549 137.64 213.642C137.668 213.735 137.691 213.796 137.71 213.824C137.747 213.927 137.78 214.025 137.808 214.118C137.836 214.202 137.868 214.286 137.906 214.37C137.962 214.501 138.018 214.613 138.074 214.706C138.13 214.799 138.195 214.893 138.27 214.986C138.279 214.995 138.288 215.009 138.298 215.028C138.307 215.047 138.302 215.061 138.284 215.07Z" fill="white"/>
<path d="M158.2 205.032C158.52 205.032 158.888 205.096 159.304 205.224C159.72 205.336 160.056 205.528 160.312 205.8C160.488 205.96 160.464 206.008 160.24 205.944C160.016 205.912 159.784 205.864 159.544 205.8C159.32 205.72 159.072 205.68 158.8 205.68C157.808 205.664 157.088 205.952 156.64 206.544C156.192 207.12 155.936 207.856 155.872 208.752C155.824 209.376 155.832 210 155.896 210.624C155.976 211.232 156.064 211.84 156.16 212.448C156.256 213.056 156.336 213.664 156.4 214.272C156.48 214.88 156.488 215.496 156.424 216.12C156.408 216.296 156.384 216.4 156.352 216.432C156.336 216.464 156.312 216.456 156.28 216.408C156.264 216.36 156.24 216.296 156.208 216.216C156.192 216.12 156.176 216.04 156.16 215.976C156.064 215.336 155.944 214.696 155.8 214.056C155.656 213.4 155.52 212.744 155.392 212.088C155.264 211.432 155.16 210.776 155.08 210.12C155.016 209.464 155.016 208.8 155.08 208.128C155.128 207.696 155.232 207.296 155.392 206.928C155.552 206.544 155.76 206.216 156.016 205.944C156.288 205.656 156.608 205.432 156.976 205.272C157.344 205.112 157.752 205.032 158.2 205.032ZM153.928 208.2C153.976 207.768 154.088 207.336 154.264 206.904C154.44 206.456 154.672 206.056 154.96 205.704C155.264 205.336 155.624 205.048 156.04 204.84C156.472 204.616 156.952 204.504 157.48 204.504C157.496 204.504 157.536 204.512 157.6 204.528C157.68 204.528 157.744 204.536 157.792 204.552C157.856 204.568 157.88 204.584 157.864 204.6C157.864 204.616 157.808 204.632 157.696 204.648C157.264 204.728 156.864 204.872 156.496 205.08C156.128 205.288 155.808 205.544 155.536 205.848C155.264 206.152 155.04 206.496 154.864 206.88C154.704 207.248 154.608 207.632 154.576 208.032C154.512 208.8 154.544 209.576 154.672 210.36C154.8 211.128 154.944 211.896 155.104 212.664C155.28 213.432 155.424 214.208 155.536 214.992C155.664 215.76 155.696 216.528 155.632 217.296C155.6 217.6 155.528 217.92 155.416 218.256C155.304 218.592 155.152 218.904 154.96 219.192C154.784 219.48 154.56 219.728 154.288 219.936C154.016 220.128 153.712 220.248 153.376 220.296C153.12 220.328 153.008 220.32 153.04 220.272C153.088 220.208 153.184 220.136 153.328 220.056C153.904 219.736 154.296 219.36 154.504 218.928C154.728 218.496 154.872 217.96 154.936 217.32C155 216.584 154.968 215.832 154.84 215.064C154.728 214.296 154.592 213.528 154.432 212.76C154.272 211.992 154.128 211.232 154 210.48C153.888 209.712 153.864 208.952 153.928 208.2ZM153.28 221.496C153.952 221.496 154.52 221.376 154.984 221.136C155.448 220.88 155.832 220.552 156.136 220.152C156.44 219.736 156.672 219.264 156.832 218.736C156.992 218.192 157.096 217.632 157.144 217.056C157.208 216.336 157.192 215.616 157.096 214.896C157 214.176 156.888 213.464 156.76 212.76C156.648 212.04 156.544 211.32 156.448 210.6C156.352 209.88 156.336 209.152 156.4 208.416C156.464 207.68 156.688 207.096 157.072 206.664C157.472 206.232 158.064 206.016 158.848 206.016C159.12 206.016 159.464 206.064 159.88 206.16C160.312 206.256 160.664 206.392 160.936 206.568C161.224 206.76 161.2 206.816 160.864 206.736C160.672 206.688 160.424 206.632 160.12 206.568C159.816 206.504 159.584 206.472 159.424 206.472C158.8 206.472 158.264 206.608 157.816 206.88C157.368 207.152 157.112 207.632 157.048 208.32C156.968 209.056 156.984 209.792 157.096 210.528C157.208 211.248 157.336 211.976 157.48 212.712C157.624 213.448 157.744 214.184 157.84 214.92C157.952 215.656 157.976 216.392 157.912 217.128C157.864 217.736 157.744 218.328 157.552 218.904C157.36 219.48 157.088 220 156.736 220.464C156.384 220.928 155.944 221.304 155.416 221.592C154.904 221.864 154.296 222 153.592 222C153.4 222 153.152 221.968 152.848 221.904C152.544 221.84 152.24 221.76 151.936 221.664C151.632 221.552 151.344 221.424 151.072 221.28C150.816 221.12 150.624 220.952 150.496 220.776C150.352 220.616 150.4 220.576 150.64 220.656C150.912 220.8 151.24 220.976 151.624 221.184C152.024 221.392 152.576 221.496 153.28 221.496ZM153.136 220.656C153.536 220.656 153.904 220.592 154.24 220.464C154.576 220.336 154.92 220.168 155.272 219.96V220.032C155.272 220.176 155.192 220.32 155.032 220.464C154.888 220.592 154.704 220.712 154.48 220.824C154.256 220.936 154 221.024 153.712 221.088C153.44 221.152 153.16 221.184 152.872 221.184C152.76 221.184 152.608 221.168 152.416 221.136C152.224 221.088 152.024 221.032 151.816 220.968C151.624 220.888 151.44 220.8 151.264 220.704C151.088 220.608 150.968 220.496 150.904 220.368C150.728 220.176 150.672 220.072 150.736 220.056C150.8 220.024 150.888 220.048 151 220.128C151.256 220.208 151.544 220.32 151.864 220.464C152.2 220.592 152.624 220.656 153.136 220.656ZM166.721 220.992C167.297 220.896 167.849 220.72 168.377 220.464C168.921 220.208 169.409 219.88 169.841 219.48C169.873 219.464 169.937 219.408 170.033 219.312C170.129 219.216 170.193 219.184 170.225 219.216C170.257 219.248 170.249 219.296 170.201 219.36C170.153 219.424 170.113 219.48 170.081 219.528C169.761 219.992 169.337 220.376 168.809 220.68C168.297 220.968 167.761 221.2 167.201 221.376C166.737 221.504 166.241 221.552 165.713 221.52C165.185 221.472 164.689 221.336 164.225 221.112C164.081 221.048 163.993 221 163.961 220.968C163.929 220.92 163.929 220.888 163.961 220.872C163.993 220.856 164.041 220.848 164.105 220.848C164.185 220.848 164.257 220.856 164.321 220.872C164.497 220.904 164.697 220.936 164.921 220.968C165.161 220.984 165.393 221 165.617 221.016C165.857 221.016 166.073 221.016 166.265 221.016C166.457 221.016 166.609 221.008 166.721 220.992ZM163.505 213.936C163.425 214.496 163.385 215.048 163.385 215.592C163.385 216.12 163.417 216.624 163.481 217.104C163.561 217.568 163.673 217.984 163.817 218.352C163.977 218.72 164.169 219.024 164.393 219.264C164.649 219.52 164.961 219.72 165.329 219.864C165.713 219.992 166.121 220.056 166.553 220.056C167.001 220.056 167.465 219.992 167.945 219.864C168.441 219.736 168.929 219.536 169.409 219.264C169.505 219.2 169.569 219.184 169.601 219.216C169.633 219.248 169.617 219.288 169.553 219.336C169.505 219.368 169.457 219.4 169.409 219.432C168.993 219.752 168.553 220.008 168.089 220.2C167.625 220.392 167.153 220.512 166.673 220.56C166.209 220.608 165.753 220.584 165.305 220.488C164.873 220.376 164.481 220.176 164.129 219.888C163.793 219.6 163.521 219.256 163.313 218.856C163.105 218.44 162.945 217.992 162.833 217.512C162.737 217.016 162.681 216.504 162.665 215.976C162.649 215.448 162.665 214.928 162.713 214.416C162.777 213.6 162.937 212.776 163.193 211.944C163.449 211.112 163.785 210.344 164.201 209.64C164.633 208.936 165.145 208.32 165.737 207.792C166.329 207.264 166.993 206.896 167.729 206.688C168.097 206.592 168.473 206.552 168.857 206.568C169.241 206.584 169.593 206.656 169.913 206.784C170.249 206.912 170.537 207.104 170.777 207.36C171.017 207.6 171.177 207.896 171.257 208.248C171.337 208.632 171.305 209.008 171.161 209.376C171.017 209.728 170.817 210.04 170.561 210.312C170.305 210.568 170.017 210.752 169.697 210.864C169.377 210.976 169.073 210.976 168.785 210.864C168.769 210.864 168.753 210.84 168.737 210.792C168.737 210.744 168.769 210.728 168.833 210.744C169.025 210.776 169.241 210.736 169.481 210.624C169.737 210.496 169.961 210.328 170.153 210.12C170.361 209.912 170.521 209.664 170.633 209.376C170.761 209.088 170.801 208.792 170.753 208.488C170.705 208.264 170.601 208.072 170.441 207.912C170.297 207.736 170.105 207.6 169.865 207.504C169.625 207.392 169.353 207.32 169.049 207.288C168.761 207.256 168.457 207.272 168.137 207.336C167.529 207.448 166.961 207.72 166.433 208.152C165.921 208.568 165.465 209.08 165.065 209.688C164.665 210.296 164.329 210.976 164.057 211.728C163.785 212.464 163.601 213.2 163.505 213.936ZM165.401 221.88C165.577 221.896 165.753 221.904 165.929 221.904C166.121 221.904 166.217 221.928 166.217 221.976C166.217 221.992 166.185 222 166.121 222C166.057 222.016 165.985 222.024 165.905 222.024C165.841 222.024 165.769 222.024 165.689 222.024C165.609 222.024 165.561 222.024 165.545 222.024C165.049 222.024 164.561 221.952 164.081 221.808C163.601 221.664 163.153 221.464 162.737 221.208C162.337 220.936 161.977 220.608 161.657 220.224C161.337 219.84 161.097 219.4 160.937 218.904C160.617 217.928 160.433 216.976 160.385 216.048C160.337 215.12 160.377 214.208 160.505 213.312C160.569 212.8 160.689 212.224 160.865 211.584C161.057 210.928 161.305 210.264 161.609 209.592C161.929 208.92 162.321 208.256 162.785 207.6C163.265 206.944 163.833 206.344 164.489 205.8C165.177 205.224 165.937 204.84 166.769 204.648C167.617 204.456 168.425 204.424 169.193 204.552C169.961 204.68 170.641 204.952 171.233 205.368C171.825 205.768 172.217 206.28 172.409 206.904C172.425 206.936 172.441 207.008 172.457 207.12C172.473 207.216 172.465 207.28 172.433 207.312C172.417 207.328 172.393 207.288 172.361 207.192C172.329 207.096 172.297 207.032 172.265 207C171.593 206.088 170.833 205.512 169.985 205.272C169.137 205.016 168.297 204.992 167.465 205.2C166.633 205.392 165.849 205.76 165.113 206.304C164.377 206.832 163.793 207.424 163.361 208.08C162.609 209.216 162.033 210.424 161.633 211.704C161.249 212.984 161.073 214.304 161.105 215.664C161.121 216.288 161.185 216.944 161.297 217.632C161.425 218.32 161.665 218.976 162.017 219.6C162.369 220.24 162.849 220.776 163.457 221.208C164.081 221.624 164.729 221.848 165.401 221.88ZM161.945 212.856C162.073 212.008 162.273 211.184 162.545 210.384C162.833 209.584 163.201 208.856 163.649 208.2C164.113 207.528 164.681 206.952 165.353 206.472C166.025 205.992 166.817 205.656 167.729 205.464C168.049 205.4 168.409 205.376 168.809 205.392C169.209 205.392 169.609 205.464 170.009 205.608C170.409 205.736 170.777 205.936 171.113 206.208C171.465 206.48 171.753 206.856 171.977 207.336C172.185 207.8 172.257 208.256 172.193 208.704C172.129 209.152 171.993 209.56 171.785 209.928C171.577 210.28 171.321 210.576 171.017 210.816C170.713 211.056 170.417 211.192 170.129 211.224C169.953 211.256 169.857 211.256 169.841 211.224C169.825 211.176 169.913 211.12 170.105 211.056C170.409 210.96 170.713 210.72 171.017 210.336C171.337 209.936 171.529 209.432 171.593 208.824C171.625 208.52 171.585 208.224 171.473 207.936C171.361 207.632 171.201 207.368 170.993 207.144C170.785 206.92 170.537 206.728 170.249 206.568C169.961 206.408 169.657 206.304 169.337 206.256C168.649 206.16 168.017 206.208 167.441 206.4C166.865 206.592 166.361 206.84 165.929 207.144C165.513 207.432 165.169 207.72 164.897 208.008C164.641 208.296 164.481 208.488 164.417 208.584C163.921 209.208 163.489 209.888 163.121 210.624C162.753 211.344 162.449 212.104 162.209 212.904C162.209 212.92 162.193 212.976 162.161 213.072C162.145 213.168 162.121 213.272 162.089 213.384C162.073 213.48 162.049 213.576 162.017 213.672C161.985 213.752 161.961 213.792 161.945 213.792C161.913 213.792 161.897 213.744 161.897 213.648C161.897 213.552 161.897 213.456 161.897 213.36C161.897 213.248 161.905 213.144 161.921 213.048C161.937 212.952 161.945 212.888 161.945 212.856ZM178.006 217.368C178.518 217.832 178.998 218.328 179.446 218.856C179.894 219.368 180.326 219.904 180.742 220.464C180.758 220.496 180.798 220.56 180.862 220.656C180.942 220.736 180.966 220.792 180.934 220.824C180.918 220.84 180.854 220.832 180.742 220.8C180.646 220.752 180.582 220.712 180.55 220.68C180.422 220.6 180.27 220.496 180.094 220.368C179.934 220.24 179.758 220.104 179.566 219.96C179.39 219.816 179.214 219.672 179.038 219.528C178.862 219.368 178.718 219.224 178.606 219.096C178.526 219.032 178.334 218.872 178.03 218.616C177.726 218.344 177.382 218.056 176.998 217.752C176.614 217.448 176.222 217.168 175.822 216.912C175.422 216.656 175.094 216.496 174.838 216.432C174.79 216.416 174.718 216.392 174.622 216.36C174.542 216.328 174.51 216.272 174.526 216.192C174.654 215.584 174.814 214.992 175.006 214.416C175.198 213.84 175.382 213.248 175.558 212.64C175.782 211.888 175.99 211.12 176.182 210.336C176.39 209.552 176.51 208.704 176.542 207.792C176.542 207.712 176.55 207.672 176.566 207.672C176.614 207.672 176.654 207.728 176.686 207.84C176.878 208.272 176.958 208.832 176.926 209.52C176.894 210.208 176.806 210.928 176.662 211.68C176.534 212.416 176.366 213.128 176.158 213.816C175.966 214.488 175.798 215.024 175.654 215.424L175.582 215.616C176.174 215.216 176.79 214.816 177.43 214.416C178.07 214.016 178.662 213.616 179.206 213.216C179.766 212.8 180.246 212.376 180.646 211.944C181.062 211.496 181.342 211.032 181.486 210.552C181.582 210.232 181.566 209.912 181.438 209.592C181.326 209.272 181.118 208.976 180.814 208.704C180.526 208.416 180.158 208.168 179.71 207.96C179.262 207.752 178.766 207.608 178.222 207.528C177.502 207.432 176.774 207.408 176.038 207.456C176.102 207.936 176.11 208.424 176.062 208.92C176.03 209.4 175.974 209.816 175.894 210.168C175.686 211.032 175.422 211.928 175.102 212.856C174.782 213.768 174.454 214.624 174.118 215.424C174.086 215.472 174.038 215.552 173.974 215.664C173.91 215.776 173.854 215.824 173.806 215.808C173.774 215.792 173.766 215.72 173.782 215.592C173.798 215.464 173.806 215.376 173.806 215.328C173.822 215.136 173.854 214.904 173.902 214.632C173.966 214.344 174.022 214.048 174.07 213.744C174.134 213.44 174.198 213.152 174.262 212.88C174.342 212.592 174.414 212.344 174.478 212.136C174.51 212.04 174.558 211.84 174.622 211.536C174.702 211.216 174.782 210.84 174.862 210.408C174.942 209.976 175.022 209.512 175.102 209.016C175.182 208.52 175.246 208.04 175.294 207.576L174.958 207.624C174.91 208.232 174.814 208.848 174.67 209.472C174.526 210.096 174.358 210.728 174.166 211.368C173.99 211.992 173.798 212.632 173.59 213.288C173.398 213.928 173.23 214.56 173.086 215.184C172.958 215.744 172.854 216.328 172.774 216.936C172.71 217.544 172.686 218.144 172.702 218.736C172.734 219.328 172.806 219.904 172.918 220.464C173.046 221.008 173.246 221.504 173.518 221.952C173.55 222.032 173.55 222.072 173.518 222.072C173.486 222.072 173.446 222.048 173.398 222C172.998 221.536 172.694 221.016 172.486 220.44C172.278 219.864 172.142 219.264 172.078 218.64C172.03 218 172.038 217.344 172.102 216.672C172.182 216 172.294 215.344 172.438 214.704C172.71 213.504 173.038 212.32 173.422 211.152C173.806 209.984 174.126 208.856 174.382 207.768C173.982 207.864 173.59 207.984 173.206 208.128C172.822 208.256 172.462 208.4 172.126 208.56C172.046 208.592 171.998 208.6 171.982 208.584C171.966 208.568 171.974 208.544 172.006 208.512C172.038 208.464 172.07 208.432 172.102 208.416C172.902 207.76 173.878 207.296 175.03 207.024C176.182 206.752 177.358 206.68 178.558 206.808C179.182 206.888 179.75 207.064 180.262 207.336C180.79 207.608 181.222 207.944 181.558 208.344C181.894 208.728 182.11 209.16 182.206 209.64C182.318 210.12 182.27 210.6 182.062 211.08C181.822 211.64 181.438 212.16 180.91 212.64C180.398 213.12 179.814 213.568 179.158 213.984C178.518 214.4 177.838 214.784 177.118 215.136C176.398 215.488 175.726 215.816 175.102 216.12C175.358 216.12 175.622 216.16 175.894 216.24C176.166 216.32 176.43 216.424 176.686 216.552C176.958 216.664 177.206 216.792 177.43 216.936C177.67 217.08 177.862 217.224 178.006 217.368ZM184.654 211.368C184.414 212.2 184.046 212.912 183.55 213.504C183.07 214.08 182.534 214.56 181.942 214.944C181.35 215.328 180.75 215.624 180.142 215.832C179.534 216.024 179.006 216.152 178.558 216.216C178.43 216.248 178.31 216.264 178.198 216.264C178.102 216.248 178.062 216.224 178.078 216.192C178.046 216.16 178.078 216.128 178.174 216.096C178.286 216.064 178.398 216.024 178.51 215.976C179.374 215.656 180.206 215.24 181.006 214.728C181.806 214.216 182.51 213.536 183.118 212.688C183.406 212.288 183.622 211.824 183.766 211.296C183.91 210.768 183.958 210.232 183.91 209.688C183.878 209.144 183.742 208.616 183.502 208.104C183.278 207.592 182.942 207.152 182.494 206.784C181.966 206.336 181.39 205.984 180.766 205.728C180.142 205.472 179.502 205.296 178.846 205.2C178.19 205.104 177.526 205.088 176.854 205.152C176.182 205.2 175.534 205.304 174.91 205.464C174.798 205.496 174.734 205.52 174.718 205.536C174.702 205.536 174.686 205.52 174.67 205.488C174.67 205.472 174.734 205.416 174.862 205.32C175.118 205.16 175.454 205.016 175.87 204.888C176.302 204.744 176.782 204.648 177.31 204.6C177.854 204.552 178.438 204.56 179.062 204.624C179.686 204.672 180.326 204.816 180.982 205.056C181.654 205.28 182.286 205.632 182.878 206.112C183.47 206.576 183.942 207.152 184.294 207.84C184.63 208.512 184.798 209.168 184.798 209.808C184.814 210.432 184.766 210.952 184.654 211.368ZM172.462 207.456C172.782 206.992 173.206 206.616 173.734 206.328C174.262 206.024 174.838 205.8 175.462 205.656C176.086 205.512 176.734 205.448 177.406 205.464C178.094 205.48 178.758 205.56 179.398 205.704C180.038 205.848 180.63 206.064 181.174 206.352C181.734 206.64 182.198 206.992 182.566 207.408C182.822 207.712 183.014 208.04 183.142 208.392C183.286 208.728 183.358 209.08 183.358 209.448C183.374 209.8 183.334 210.144 183.238 210.48C183.158 210.816 183.038 211.128 182.878 211.416C182.846 211.48 182.766 211.592 182.638 211.752C182.51 211.896 182.43 211.952 182.398 211.92C182.366 211.904 182.39 211.816 182.47 211.656C182.55 211.496 182.606 211.376 182.638 211.296C182.766 210.88 182.814 210.472 182.782 210.072C182.766 209.656 182.686 209.272 182.542 208.92C182.414 208.568 182.238 208.256 182.014 207.984C181.79 207.696 181.55 207.464 181.294 207.288C180.686 206.888 179.998 206.608 179.23 206.448C178.462 206.272 177.678 206.208 176.878 206.256C176.094 206.288 175.326 206.424 174.574 206.664C173.822 206.888 173.174 207.192 172.63 207.576C172.486 207.704 172.39 207.744 172.342 207.696C172.31 207.68 172.31 207.648 172.342 207.6C172.39 207.536 172.43 207.488 172.462 207.456ZM185.254 222.576C185.35 222.56 185.398 222.568 185.398 222.6C185.398 222.632 185.358 222.664 185.278 222.696C184.702 222.904 184.142 223.016 183.598 223.032C183.054 223.048 182.534 222.992 182.038 222.864C181.542 222.752 181.078 222.584 180.646 222.36C180.214 222.152 179.822 221.92 179.47 221.664C179.054 221.36 178.654 221.024 178.27 220.656C177.902 220.272 177.542 219.896 177.19 219.528C176.838 219.144 176.486 218.776 176.134 218.424C175.782 218.072 175.422 217.76 175.054 217.488C174.782 218.384 174.534 219.176 174.31 219.864C174.278 219.944 174.246 220.016 174.214 220.08C174.182 220.144 174.15 220.168 174.118 220.152C174.086 220.136 174.07 220.096 174.07 220.032C174.07 219.952 174.07 219.872 174.07 219.792C174.102 219.344 174.134 218.888 174.166 218.424C174.198 217.96 174.27 217.496 174.382 217.032C174.27 216.968 174.158 216.912 174.046 216.864C173.95 216.816 173.838 216.76 173.71 216.696C173.662 216.648 173.638 216.616 173.638 216.6C173.638 216.584 173.654 216.576 173.686 216.576C173.734 216.576 173.774 216.576 173.806 216.576C174.446 216.624 175.03 216.824 175.558 217.176C176.086 217.512 176.598 217.912 177.094 218.376C177.59 218.84 178.078 219.336 178.558 219.864C179.038 220.376 179.55 220.832 180.094 221.232C180.398 221.456 180.742 221.664 181.126 221.856C181.526 222.032 181.95 222.184 182.398 222.312C182.846 222.44 183.31 222.528 183.79 222.576C184.286 222.64 184.774 222.64 185.254 222.576ZM181.534 219.072C181.982 219.472 182.406 219.92 182.806 220.416C183.222 220.912 183.622 221.312 184.006 221.616C184.118 221.728 184.166 221.808 184.15 221.856C184.118 221.888 184.078 221.896 184.03 221.88C183.982 221.864 183.926 221.848 183.862 221.832C183.43 221.688 183.022 221.488 182.638 221.232C182.27 220.976 181.91 220.688 181.558 220.368C181.206 220.048 180.862 219.712 180.526 219.36C180.206 219.008 179.878 218.664 179.542 218.328C179.318 218.104 179.07 217.856 178.798 217.584C178.542 217.312 178.27 217.064 177.982 216.84C177.694 216.6 177.39 216.408 177.07 216.264C176.766 216.104 176.446 216.024 176.11 216.024L177.046 215.616C177.286 215.504 177.582 215.368 177.934 215.208C178.286 215.048 178.622 214.896 178.942 214.752C179.262 214.608 179.542 214.496 179.782 214.416C180.022 214.32 180.15 214.28 180.166 214.296C180.182 214.328 180.15 214.384 180.07 214.464C180.006 214.544 179.91 214.632 179.782 214.728C179.67 214.824 179.558 214.912 179.446 214.992C179.334 215.072 179.254 215.12 179.206 215.136C178.902 215.312 178.614 215.48 178.342 215.64C178.086 215.784 177.822 215.92 177.55 216.048C177.918 216.192 178.294 216.4 178.678 216.672C179.062 216.928 179.43 217.208 179.782 217.512C180.134 217.816 180.462 218.112 180.766 218.4C181.07 218.672 181.326 218.896 181.534 219.072ZM173.758 220.56C173.806 220.832 173.87 221.096 173.95 221.352C174.03 221.608 174.126 221.824 174.238 222C174.254 222 174.262 222.008 174.262 222.024C174.278 222.056 174.27 222.072 174.238 222.072C174.206 222.072 174.166 222.056 174.118 222.024C174.086 222.008 174.054 222 174.022 222C173.814 221.872 173.646 221.72 173.518 221.544C173.406 221.352 173.31 221.024 173.23 220.56C173.198 220.384 173.182 220.16 173.182 219.888C173.182 219.616 173.19 219.36 173.206 219.12C173.222 218.864 173.246 218.648 173.278 218.472C173.31 218.296 173.358 218.208 173.422 218.208C173.438 218.208 173.454 218.248 173.47 218.328C173.502 218.408 173.526 218.504 173.542 218.616C173.558 218.712 173.566 218.808 173.566 218.904C173.582 219 173.59 219.064 173.59 219.096C173.622 219.368 173.646 219.624 173.662 219.864C173.678 220.104 173.71 220.336 173.758 220.56ZM184.27 222.072C184.526 222.088 184.718 222.088 184.846 222.072C184.99 222.072 185.174 222.056 185.398 222.024C185.414 222.024 185.454 222.016 185.518 222C185.582 222 185.622 222.008 185.638 222.024C185.654 222.056 185.63 222.096 185.566 222.144C185.518 222.192 185.478 222.224 185.446 222.24C185.19 222.32 184.95 222.376 184.726 222.408C184.518 222.44 184.206 222.432 183.79 222.384C183.646 222.368 183.486 222.336 183.31 222.288C183.134 222.24 182.974 222.184 182.83 222.12C182.686 222.072 182.574 222.024 182.494 221.976C182.414 221.912 182.398 221.864 182.446 221.832C182.478 221.816 182.574 221.832 182.734 221.88C182.91 221.912 183.03 221.936 183.094 221.952C183.318 222 183.526 222.032 183.718 222.048C183.91 222.064 184.094 222.072 184.27 222.072ZM193.406 204.816C193.374 204.768 193.326 204.696 193.262 204.6C193.214 204.488 193.206 204.416 193.238 204.384C193.27 204.352 193.318 204.36 193.382 204.408C193.462 204.456 193.51 204.488 193.526 204.504C193.814 204.712 194.078 205 194.318 205.368C194.574 205.736 194.798 206.144 194.99 206.592C195.198 207.024 195.382 207.48 195.542 207.96C195.702 208.44 195.83 208.896 195.926 209.328C196.166 210.384 196.366 211.424 196.526 212.448C196.702 213.472 196.79 214.528 196.79 215.616C196.79 215.648 196.79 215.744 196.79 215.904C196.806 216.064 196.782 216.16 196.718 216.192C196.67 216.16 196.614 216.08 196.55 215.952C196.502 215.824 196.47 215.736 196.454 215.688C196.262 215.096 196.086 214.424 195.926 213.672C195.782 212.904 195.646 212.208 195.518 211.584C195.422 211.104 195.334 210.648 195.254 210.216C195.174 209.768 195.078 209.336 194.966 208.92C194.87 208.504 194.75 208.088 194.606 207.672C194.478 207.24 194.318 206.792 194.126 206.328C194.094 206.264 194.038 206.152 193.958 205.992C193.894 205.832 193.822 205.672 193.742 205.512C193.662 205.352 193.59 205.208 193.526 205.08C193.462 204.936 193.422 204.848 193.406 204.816ZM199.166 222.6C198.99 222.504 198.87 222.44 198.806 222.408C198.742 222.392 198.622 222.328 198.446 222.216C198.062 221.992 197.71 221.704 197.39 221.352C197.07 220.984 196.782 220.584 196.526 220.152C196.27 219.72 196.038 219.264 195.83 218.784C195.638 218.288 195.47 217.8 195.326 217.32C195.006 217.528 194.622 217.656 194.174 217.704C193.742 217.736 193.342 217.752 192.974 217.752C192.51 217.752 192.046 217.736 191.582 217.704C191.134 217.672 190.678 217.656 190.214 217.656C189.766 218.488 189.342 219.296 188.942 220.08C188.558 220.848 188.254 221.568 188.03 222.24C188.03 222.256 188.022 222.288 188.006 222.336C187.99 222.4 187.966 222.432 187.934 222.432C187.886 222.432 187.862 222.376 187.862 222.264C187.862 222.152 187.862 222.08 187.862 222.048C187.862 221.408 188.014 220.696 188.318 219.912C188.638 219.112 188.99 218.328 189.374 217.56L189.014 217.536C188.918 217.76 188.782 218.072 188.606 218.472C188.446 218.872 188.286 219.288 188.126 219.72C187.982 220.152 187.846 220.568 187.718 220.968C187.606 221.368 187.55 221.688 187.55 221.928C187.55 221.976 187.526 222 187.478 222C187.414 222 187.366 221.952 187.334 221.856C187.302 221.744 187.27 221.624 187.238 221.496C187.222 221.368 187.206 221.24 187.19 221.112C187.19 220.968 187.19 220.872 187.19 220.824C187.19 220.264 187.262 219.68 187.406 219.072C187.55 218.448 187.742 217.88 187.982 217.368L187.67 217.32C187.526 217.672 187.39 218.024 187.262 218.376C187.134 218.712 187.022 219.064 186.926 219.432C186.926 219.464 186.918 219.504 186.902 219.552C186.886 219.6 186.862 219.616 186.83 219.6C186.798 219.536 186.774 219.464 186.758 219.384C186.758 219.288 186.758 219.208 186.758 219.144C186.758 218.472 186.878 217.824 187.118 217.2C187.198 217.04 187.278 216.96 187.358 216.96C187.694 216.864 188.03 216.808 188.366 216.792C188.718 216.776 189.078 216.768 189.446 216.768C190.246 216.768 191.038 216.832 191.822 216.96C192.606 217.072 193.39 217.128 194.174 217.128C194.558 217.128 194.91 217.096 195.23 217.032L195.182 216.648C195.006 216.696 194.814 216.728 194.606 216.744C194.414 216.76 194.23 216.768 194.054 216.768C193.43 216.768 192.782 216.704 192.11 216.576C191.454 216.448 190.822 216.296 190.214 216.12C190.182 216.088 190.118 216.064 190.022 216.048C189.926 216.016 189.878 215.976 189.878 215.928C189.878 215.896 189.926 215.872 190.022 215.856C190.118 215.824 190.182 215.808 190.214 215.808C190.438 215.792 190.654 215.784 190.862 215.784C191.086 215.768 191.31 215.76 191.534 215.76C191.902 215.76 192.27 215.768 192.638 215.784C193.006 215.784 193.382 215.784 193.766 215.784C193.958 215.784 194.158 215.784 194.366 215.784C194.574 215.784 194.774 215.776 194.966 215.76L194.918 215.496H194.606C193.838 215.496 193.07 215.424 192.302 215.28C191.55 215.136 190.79 215.064 190.022 215.064C189.366 215.064 188.782 215.144 188.27 215.304C187.774 215.464 187.342 215.648 186.974 215.856C186.622 216.064 186.334 216.272 186.11 216.48C185.886 216.688 185.726 216.84 185.63 216.936C185.598 216.952 185.582 216.96 185.582 216.96C185.566 216.96 185.558 216.944 185.558 216.912C185.558 216.896 185.566 216.88 185.582 216.864C185.87 216.304 186.222 215.84 186.638 215.472C187.054 215.088 187.566 214.8 188.174 214.608C188.782 213.312 189.406 212.024 190.046 210.744C190.702 209.464 191.39 208.2 192.11 206.952C192.126 206.92 192.158 206.872 192.206 206.808C192.254 206.728 192.302 206.688 192.35 206.688C192.366 206.704 192.374 206.72 192.374 206.736V206.784C192.374 206.912 192.366 207.008 192.35 207.072C192.046 208.368 191.598 209.616 191.006 210.816C190.414 212.016 189.806 213.2 189.182 214.368L189.638 214.344C189.686 214.248 189.806 214.04 189.998 213.72C190.206 213.4 190.422 213.072 190.646 212.736C190.886 212.384 191.102 212.072 191.294 211.8C191.486 211.512 191.606 211.368 191.654 211.368L191.678 211.44C191.678 211.52 191.63 211.696 191.534 211.968C191.438 212.24 191.326 212.536 191.198 212.856C191.07 213.176 190.942 213.48 190.814 213.768C190.702 214.04 190.622 214.232 190.574 214.344C190.67 214.344 190.766 214.352 190.862 214.368C190.958 214.368 191.054 214.368 191.15 214.368C191.438 213.792 191.742 213.192 192.062 212.568C192.398 211.928 192.686 211.28 192.926 210.624C193.166 209.968 193.326 209.304 193.406 208.632C193.502 207.96 193.454 207.296 193.262 206.64C193.262 206.72 193.238 206.88 193.19 207.12C193.158 207.36 193.11 207.616 193.046 207.888C192.982 208.144 192.918 208.376 192.854 208.584C192.79 208.776 192.726 208.872 192.662 208.872C192.614 208.872 192.59 208.84 192.59 208.776C192.606 208.712 192.614 208.672 192.614 208.656C192.614 208.24 192.638 207.832 192.686 207.432C192.75 207.016 192.782 206.6 192.782 206.184C192.782 205.624 192.694 205.08 192.518 204.552C192.518 204.536 192.494 204.472 192.446 204.36C192.398 204.232 192.414 204.168 192.494 204.168C192.526 204.168 192.582 204.208 192.662 204.288C192.822 204.448 192.974 204.664 193.118 204.936C193.278 205.208 193.422 205.504 193.55 205.824C193.678 206.128 193.798 206.432 193.91 206.736C194.022 207.04 194.11 207.296 194.174 207.504C194.382 208.192 194.55 208.888 194.678 209.592C194.822 210.28 194.942 210.976 195.038 211.68C195.15 212.368 195.262 213.064 195.374 213.768C195.486 214.472 195.614 215.168 195.758 215.856C195.902 216.528 196.07 217.184 196.262 217.824C196.47 218.464 196.718 219.072 197.006 219.648C197.294 220.224 197.622 220.76 197.99 221.256C198.374 221.736 198.814 222.16 199.31 222.528C199.39 222.608 199.414 222.656 199.382 222.672C199.366 222.704 199.294 222.68 199.166 222.6ZM199.118 220.56C199.134 220.656 199.126 220.704 199.094 220.704C199.062 220.688 199.022 220.656 198.974 220.608C198.942 220.56 198.902 220.504 198.854 220.44C198.822 220.376 198.806 220.336 198.806 220.32C198.422 219.616 198.118 218.904 197.894 218.184C197.67 217.448 197.494 216.712 197.366 215.976C197.238 215.224 197.126 214.472 197.03 213.72C196.95 212.952 196.846 212.176 196.718 211.392C196.606 210.592 196.454 209.784 196.262 208.968C196.07 208.152 195.798 207.32 195.446 206.472C195.43 206.44 195.406 206.384 195.374 206.304C195.342 206.224 195.342 206.176 195.374 206.16C195.406 206.16 195.446 206.184 195.494 206.232L195.59 206.328C195.942 206.744 196.254 207.296 196.526 207.984C196.798 208.672 197.038 209.408 197.246 210.192C197.454 210.976 197.622 211.752 197.75 212.52C197.894 213.288 198.006 213.96 198.086 214.536C198.214 215.448 198.35 216.408 198.494 217.416C198.638 218.424 198.822 219.376 199.046 220.272L199.118 220.56ZM191.99 214.464C192.454 214.512 192.91 214.568 193.358 214.632C193.822 214.696 194.286 214.744 194.75 214.776C194.574 213.928 194.422 213.088 194.294 212.256C194.166 211.424 194.046 210.576 193.934 209.712C193.726 210.544 193.438 211.352 193.07 212.136C192.718 212.92 192.358 213.696 191.99 214.464ZM199.886 222.336C199.566 222.192 199.286 222.056 199.046 221.928C198.806 221.784 198.598 221.592 198.422 221.352C198.15 220.984 197.934 220.616 197.774 220.248C197.63 219.88 197.51 219.536 197.414 219.216C197.382 219.088 197.35 218.944 197.318 218.784C197.302 218.624 197.31 218.544 197.342 218.544C197.406 218.544 197.486 218.648 197.582 218.856C197.678 219.064 197.766 219.24 197.846 219.384C198.086 219.88 198.39 220.384 198.758 220.896C199.126 221.392 199.526 221.8 199.958 222.12C200.086 222.232 200.126 222.304 200.078 222.336C200.03 222.368 199.966 222.368 199.886 222.336ZM185.702 217.728C185.702 217.728 185.686 217.728 185.654 217.728H185.63C185.63 217.68 185.638 217.632 185.654 217.584C185.67 217.536 185.686 217.488 185.702 217.44C185.83 217.168 185.95 216.968 186.062 216.84C186.19 216.696 186.39 216.544 186.662 216.384C186.822 216.288 187.046 216.192 187.334 216.096C187.622 216 187.854 215.952 188.03 215.952C188.062 215.952 188.102 215.96 188.15 215.976C188.214 215.976 188.246 216 188.246 216.048C188.246 216.096 188.158 216.16 187.982 216.24C187.822 216.32 187.718 216.376 187.67 216.408C187.062 216.776 186.614 217.056 186.326 217.248C186.038 217.44 185.83 217.6 185.702 217.728ZM205.145 209.808C204.921 210.672 204.641 211.568 204.305 212.496C203.985 213.424 203.649 214.304 203.297 215.136C203.281 215.168 203.241 215.248 203.177 215.376C203.113 215.488 203.065 215.536 203.033 215.52C202.985 215.52 202.961 215.456 202.961 215.328C202.977 215.184 202.993 215.088 203.009 215.04C203.025 214.848 203.057 214.608 203.105 214.32C203.153 214.032 203.201 213.736 203.249 213.432C203.313 213.128 203.377 212.832 203.441 212.544C203.521 212.256 203.593 212.008 203.657 211.8C203.689 211.736 203.737 211.576 203.801 211.32C203.865 211.064 203.929 210.76 203.993 210.408C204.073 210.04 204.153 209.64 204.233 209.208C204.313 208.776 204.385 208.352 204.449 207.936L204.161 207.864C204.081 208.424 203.961 209 203.801 209.592C203.657 210.168 203.489 210.752 203.297 211.344C203.121 211.92 202.945 212.512 202.769 213.12C202.593 213.712 202.433 214.304 202.289 214.896C202.161 215.456 202.065 216.04 202.001 216.648C201.937 217.256 201.913 217.872 201.929 218.496C201.945 219.104 202.017 219.704 202.145 220.296C202.273 220.872 202.465 221.408 202.721 221.904C202.769 222.016 202.785 222.072 202.769 222.072C202.737 222.072 202.713 222.064 202.697 222.048L202.649 222C202.201 221.472 201.865 220.904 201.641 220.296C201.433 219.672 201.297 219.032 201.233 218.376C201.185 217.72 201.201 217.056 201.281 216.384C201.361 215.712 201.473 215.056 201.617 214.416C201.889 213.232 202.209 212.096 202.577 211.008C202.945 209.904 203.257 208.824 203.513 207.768C202.553 207.608 201.649 207.464 200.801 207.336C199.969 207.192 199.193 207.192 198.473 207.336C198.425 207.336 198.401 207.328 198.401 207.312C198.401 207.28 198.409 207.264 198.425 207.264C198.457 207.248 198.481 207.232 198.497 207.216C199.041 206.896 199.617 206.72 200.225 206.688C200.849 206.656 201.489 206.688 202.145 206.784C202.817 206.864 203.497 206.976 204.185 207.12C204.889 207.248 205.593 207.32 206.297 207.336C206.729 207.352 207.177 207.32 207.641 207.24C208.121 207.144 208.577 207.008 209.009 206.832C209.457 206.64 209.857 206.392 210.209 206.088C210.577 205.784 210.873 205.424 211.097 205.008C211.129 204.928 211.161 204.888 211.193 204.888V204.96V205.008C211.017 205.616 210.745 206.12 210.377 206.52C210.009 206.904 209.585 207.216 209.105 207.456C208.641 207.696 208.137 207.864 207.593 207.96C207.065 208.04 206.545 208.072 206.033 208.056C206.113 208.552 206.113 209.128 206.033 209.784C205.969 210.44 205.865 211.104 205.721 211.776C205.577 212.448 205.425 213.088 205.265 213.696C205.105 214.288 204.977 214.768 204.881 215.136C204.689 215.904 204.465 216.688 204.209 217.488C203.953 218.288 203.721 218.992 203.513 219.6C203.481 219.68 203.441 219.752 203.393 219.816C203.361 219.88 203.329 219.904 203.297 219.888C203.265 219.872 203.249 219.832 203.249 219.768C203.265 219.688 203.273 219.608 203.273 219.528C203.321 218.328 203.497 217.128 203.801 215.928C204.105 214.728 204.433 213.52 204.785 212.304C204.977 211.632 205.161 210.952 205.337 210.264C205.529 209.576 205.665 208.84 205.745 208.056C205.665 208.04 205.593 208.032 205.529 208.032C205.481 208.032 205.417 208.032 205.337 208.032C205.337 208.352 205.321 208.664 205.289 208.968C205.273 209.272 205.225 209.552 205.145 209.808ZM205.793 204.696C206.417 204.776 207.049 204.84 207.689 204.888C208.329 204.936 208.881 204.96 209.345 204.96C209.505 204.96 209.585 204.984 209.585 205.032C209.585 205.096 209.505 205.152 209.345 205.2C208.529 205.52 207.665 205.664 206.753 205.632C205.857 205.6 204.945 205.512 204.017 205.368C203.457 205.288 202.881 205.208 202.289 205.128C201.697 205.048 201.057 205.048 200.369 205.128C200.305 205.144 200.273 205.136 200.273 205.104C200.273 205.072 200.289 205.048 200.321 205.032C200.353 205.016 200.385 204.992 200.417 204.96C200.721 204.736 201.113 204.592 201.593 204.528C202.073 204.448 202.569 204.416 203.081 204.432C203.609 204.432 204.113 204.464 204.593 204.528C205.073 204.592 205.473 204.648 205.793 204.696ZM202.193 205.44C202.865 205.536 203.545 205.656 204.233 205.8C204.937 205.944 205.617 206.104 206.273 206.28C206.305 206.312 206.369 206.344 206.465 206.376C206.577 206.392 206.633 206.424 206.633 206.472C206.633 206.504 206.585 206.528 206.489 206.544C206.393 206.56 206.321 206.584 206.273 206.616C206.129 206.648 205.945 206.664 205.721 206.664C205.513 206.664 205.289 206.664 205.049 206.664C204.825 206.648 204.601 206.632 204.377 206.616C204.153 206.6 203.961 206.576 203.801 206.544C203.689 206.528 203.409 206.496 202.961 206.448C202.529 206.4 202.049 206.368 201.521 206.352C200.993 206.336 200.481 206.344 199.985 206.376C199.505 206.392 199.161 206.456 198.953 206.568C198.889 206.6 198.849 206.616 198.833 206.616H198.809C198.809 206.552 198.841 206.488 198.905 206.424C199.065 206.216 199.281 206.04 199.553 205.896C199.841 205.752 200.137 205.64 200.441 205.56C200.745 205.48 201.049 205.432 201.353 205.416C201.673 205.4 201.953 205.408 202.193 205.44ZM202.985 220.296C203.033 220.568 203.089 220.84 203.153 221.112C203.233 221.384 203.329 221.648 203.441 221.904C203.505 222.032 203.513 222.096 203.465 222.096C203.433 222.096 203.385 222.08 203.321 222.048C203.289 222.032 203.265 222.008 203.249 221.976C203.041 221.736 202.873 221.512 202.745 221.304C202.633 221.096 202.537 220.76 202.457 220.296C202.425 220.12 202.401 219.896 202.385 219.624C202.385 219.352 202.393 219.088 202.409 218.832C202.425 218.576 202.449 218.36 202.481 218.184C202.513 218.008 202.561 217.92 202.625 217.92C202.641 217.92 202.657 217.96 202.673 218.04C202.705 218.12 202.729 218.216 202.745 218.328C202.761 218.424 202.777 218.528 202.793 218.64C202.809 218.736 202.817 218.8 202.817 218.832C202.849 219.104 202.873 219.36 202.889 219.6C202.921 219.84 202.953 220.072 202.985 220.296ZM209.945 205.272C210.297 204.968 210.593 204.64 210.833 204.288C210.865 204.224 210.897 204.192 210.929 204.192C210.945 204.192 210.953 204.248 210.953 204.36C210.953 204.424 210.945 204.48 210.929 204.528C210.865 204.8 210.793 205.016 210.713 205.176C210.633 205.336 210.441 205.528 210.137 205.752C210.025 205.848 209.873 205.944 209.681 206.04C209.489 206.12 209.305 206.192 209.129 206.256C208.953 206.32 208.793 206.36 208.649 206.376C208.521 206.376 208.449 206.344 208.433 206.28C208.433 206.264 208.457 206.24 208.505 206.208C208.553 206.16 208.609 206.112 208.673 206.064C208.753 206.016 208.825 205.976 208.889 205.944C208.953 205.896 209.001 205.864 209.033 205.848C209.193 205.768 209.345 205.68 209.489 205.584C209.649 205.488 209.801 205.384 209.945 205.272ZM215.541 220.992C216.117 220.896 216.669 220.72 217.197 220.464C217.741 220.208 218.229 219.88 218.661 219.48C218.693 219.464 218.757 219.408 218.853 219.312C218.949 219.216 219.013 219.184 219.045 219.216C219.077 219.248 219.069 219.296 219.021 219.36C218.973 219.424 218.933 219.48 218.901 219.528C218.581 219.992 218.157 220.376 217.629 220.68C217.117 220.968 216.581 221.2 216.021 221.376C215.557 221.504 215.061 221.552 214.533 221.52C214.005 221.472 213.509 221.336 213.045 221.112C212.901 221.048 212.813 221 212.781 220.968C212.749 220.92 212.749 220.888 212.781 220.872C212.813 220.856 212.861 220.848 212.925 220.848C213.005 220.848 213.077 220.856 213.141 220.872C213.317 220.904 213.517 220.936 213.741 220.968C213.981 220.984 214.213 221 214.437 221.016C214.677 221.016 214.893 221.016 215.085 221.016C215.277 221.016 215.429 221.008 215.541 220.992ZM212.325 213.936C212.245 214.496 212.205 215.048 212.205 215.592C212.205 216.12 212.237 216.624 212.301 217.104C212.381 217.568 212.493 217.984 212.637 218.352C212.797 218.72 212.989 219.024 213.213 219.264C213.469 219.52 213.781 219.72 214.149 219.864C214.533 219.992 214.941 220.056 215.373 220.056C215.821 220.056 216.285 219.992 216.765 219.864C217.261 219.736 217.749 219.536 218.229 219.264C218.325 219.2 218.389 219.184 218.421 219.216C218.453 219.248 218.437 219.288 218.373 219.336C218.325 219.368 218.277 219.4 218.229 219.432C217.813 219.752 217.373 220.008 216.909 220.2C216.445 220.392 215.973 220.512 215.493 220.56C215.029 220.608 214.573 220.584 214.125 220.488C213.693 220.376 213.301 220.176 212.949 219.888C212.613 219.6 212.341 219.256 212.133 218.856C211.925 218.44 211.765 217.992 211.653 217.512C211.557 217.016 211.501 216.504 211.485 215.976C211.469 215.448 211.485 214.928 211.533 214.416C211.597 213.6 211.757 212.776 212.013 211.944C212.269 211.112 212.605 210.344 213.021 209.64C213.453 208.936 213.965 208.32 214.557 207.792C215.149 207.264 215.813 206.896 216.549 206.688C216.917 206.592 217.293 206.552 217.677 206.568C218.061 206.584 218.413 206.656 218.733 206.784C219.069 206.912 219.357 207.104 219.597 207.36C219.837 207.6 219.997 207.896 220.077 208.248C220.157 208.632 220.125 209.008 219.981 209.376C219.837 209.728 219.637 210.04 219.381 210.312C219.125 210.568 218.837 210.752 218.517 210.864C218.197 210.976 217.893 210.976 217.605 210.864C217.589 210.864 217.573 210.84 217.557 210.792C217.557 210.744 217.589 210.728 217.653 210.744C217.845 210.776 218.061 210.736 218.301 210.624C218.557 210.496 218.781 210.328 218.973 210.12C219.181 209.912 219.341 209.664 219.453 209.376C219.581 209.088 219.621 208.792 219.573 208.488C219.525 208.264 219.421 208.072 219.261 207.912C219.117 207.736 218.925 207.6 218.685 207.504C218.445 207.392 218.173 207.32 217.869 207.288C217.581 207.256 217.277 207.272 216.957 207.336C216.349 207.448 215.781 207.72 215.253 208.152C214.741 208.568 214.285 209.08 213.885 209.688C213.485 210.296 213.149 210.976 212.877 211.728C212.605 212.464 212.421 213.2 212.325 213.936ZM214.221 221.88C214.397 221.896 214.573 221.904 214.749 221.904C214.941 221.904 215.037 221.928 215.037 221.976C215.037 221.992 215.005 222 214.941 222C214.877 222.016 214.805 222.024 214.725 222.024C214.661 222.024 214.589 222.024 214.509 222.024C214.429 222.024 214.381 222.024 214.365 222.024C213.869 222.024 213.381 221.952 212.901 221.808C212.421 221.664 211.973 221.464 211.557 221.208C211.157 220.936 210.797 220.608 210.477 220.224C210.157 219.84 209.917 219.4 209.757 218.904C209.437 217.928 209.253 216.976 209.205 216.048C209.157 215.12 209.197 214.208 209.325 213.312C209.389 212.8 209.509 212.224 209.685 211.584C209.877 210.928 210.125 210.264 210.429 209.592C210.749 208.92 211.141 208.256 211.605 207.6C212.085 206.944 212.653 206.344 213.309 205.8C213.997 205.224 214.757 204.84 215.589 204.648C216.437 204.456 217.245 204.424 218.013 204.552C218.781 204.68 219.461 204.952 220.053 205.368C220.645 205.768 221.037 206.28 221.229 206.904C221.245 206.936 221.261 207.008 221.277 207.12C221.293 207.216 221.285 207.28 221.253 207.312C221.237 207.328 221.213 207.288 221.181 207.192C221.149 207.096 221.117 207.032 221.085 207C220.413 206.088 219.653 205.512 218.805 205.272C217.957 205.016 217.117 204.992 216.285 205.2C215.453 205.392 214.669 205.76 213.933 206.304C213.197 206.832 212.613 207.424 212.181 208.08C211.429 209.216 210.853 210.424 210.453 211.704C210.069 212.984 209.893 214.304 209.925 215.664C209.941 216.288 210.005 216.944 210.117 217.632C210.245 218.32 210.485 218.976 210.837 219.6C211.189 220.24 211.669 220.776 212.277 221.208C212.901 221.624 213.549 221.848 214.221 221.88ZM210.765 212.856C210.893 212.008 211.093 211.184 211.365 210.384C211.653 209.584 212.021 208.856 212.469 208.2C212.933 207.528 213.501 206.952 214.173 206.472C214.845 205.992 215.637 205.656 216.549 205.464C216.869 205.4 217.229 205.376 217.629 205.392C218.029 205.392 218.429 205.464 218.829 205.608C219.229 205.736 219.597 205.936 219.933 206.208C220.285 206.48 220.573 206.856 220.797 207.336C221.005 207.8 221.077 208.256 221.013 208.704C220.949 209.152 220.813 209.56 220.605 209.928C220.397 210.28 220.141 210.576 219.837 210.816C219.533 211.056 219.237 211.192 218.949 211.224C218.773 211.256 218.677 211.256 218.661 211.224C218.645 211.176 218.733 211.12 218.925 211.056C219.229 210.96 219.533 210.72 219.837 210.336C220.157 209.936 220.349 209.432 220.413 208.824C220.445 208.52 220.405 208.224 220.293 207.936C220.181 207.632 220.021 207.368 219.813 207.144C219.605 206.92 219.357 206.728 219.069 206.568C218.781 206.408 218.477 206.304 218.157 206.256C217.469 206.16 216.837 206.208 216.261 206.4C215.685 206.592 215.181 206.84 214.749 207.144C214.333 207.432 213.989 207.72 213.717 208.008C213.461 208.296 213.301 208.488 213.237 208.584C212.741 209.208 212.309 209.888 211.941 210.624C211.573 211.344 211.269 212.104 211.029 212.904C211.029 212.92 211.013 212.976 210.981 213.072C210.965 213.168 210.941 213.272 210.909 213.384C210.893 213.48 210.869 213.576 210.837 213.672C210.805 213.752 210.781 213.792 210.765 213.792C210.733 213.792 210.717 213.744 210.717 213.648C210.717 213.552 210.717 213.456 210.717 213.36C210.717 213.248 210.725 213.144 210.741 213.048C210.757 212.952 210.765 212.888 210.765 212.856ZM229.419 216.432C228.731 216.368 228.019 216.28 227.283 216.168C226.563 216.04 225.883 215.888 225.243 215.712C225.211 215.696 225.139 215.672 225.027 215.64C224.915 215.608 224.859 215.576 224.859 215.544C224.859 215.496 224.915 215.464 225.027 215.448C225.139 215.432 225.211 215.424 225.243 215.424C225.563 215.392 225.971 215.376 226.467 215.376C226.963 215.36 227.371 215.376 227.691 215.424C227.995 215.472 228.347 215.512 228.747 215.544C229.163 215.576 229.579 215.584 229.995 215.568C230.411 215.552 230.811 215.512 231.195 215.448C231.595 215.384 231.939 215.288 232.227 215.16C232.355 215.112 232.499 215.016 232.659 214.872C232.819 214.728 232.939 214.584 233.019 214.44C232.507 214.776 231.939 214.984 231.315 215.064C230.691 215.144 230.035 215.16 229.347 215.112C228.675 215.064 227.987 214.992 227.283 214.896C226.595 214.8 225.915 214.736 225.243 214.704C224.811 214.688 224.363 214.704 223.899 214.752C223.451 214.8 223.011 214.896 222.579 215.04C222.163 215.184 221.779 215.376 221.427 215.616C221.075 215.856 220.787 216.152 220.562 216.504C220.53 216.584 220.522 216.6 220.538 216.552C220.538 216.488 220.538 216.44 220.538 216.408C220.667 215.768 220.963 215.288 221.427 214.968C221.907 214.632 222.427 214.376 222.987 214.2C223.195 213.336 223.435 212.48 223.707 211.632C223.979 210.784 224.227 209.96 224.451 209.16C224.691 208.36 224.883 207.584 225.027 206.832C225.187 206.08 225.259 205.352 225.243 204.648C225.259 204.616 225.259 204.584 225.243 204.552C225.243 204.52 225.259 204.504 225.291 204.504C225.323 204.488 225.339 204.512 225.339 204.576C225.355 204.624 225.363 204.656 225.363 204.672C225.571 205.376 225.651 206.112 225.603 206.88C225.555 207.632 225.435 208.4 225.243 209.184C225.067 209.968 224.843 210.768 224.571 211.584C224.315 212.384 224.075 213.192 223.851 214.008L224.475 213.936C224.555 213.568 224.635 213.192 224.715 212.808C224.811 212.424 224.907 212.088 225.003 211.8C225.035 211.704 225.083 211.512 225.147 211.224C225.227 210.92 225.307 210.56 225.387 210.144C225.467 209.728 225.547 209.28 225.627 208.8C225.723 208.32 225.795 207.856 225.843 207.408C225.907 206.96 225.939 206.552 225.939 206.184C225.955 205.816 225.939 205.528 225.891 205.32C225.891 205.176 225.899 205.104 225.915 205.104C225.947 205.104 225.979 205.128 226.011 205.176C226.043 205.208 226.067 205.24 226.083 205.272C226.259 205.544 226.387 205.872 226.467 206.256C226.563 206.64 226.619 207.048 226.635 207.48C226.667 207.896 226.659 208.312 226.611 208.728C226.579 209.144 226.523 209.504 226.443 209.808C226.251 210.48 226.043 211.168 225.819 211.872C225.595 212.576 225.355 213.264 225.099 213.936H225.507H225.627C225.691 213.664 225.771 213.392 225.867 213.12C225.963 212.848 226.051 212.576 226.131 212.304C226.339 211.552 226.547 210.784 226.755 210C226.963 209.2 227.083 208.344 227.115 207.432C227.115 207.352 227.123 207.312 227.139 207.312C227.171 207.312 227.187 207.328 227.187 207.36C227.203 207.392 227.219 207.424 227.235 207.456C227.379 207.808 227.443 208.256 227.427 208.8C227.427 209.344 227.379 209.92 227.283 210.528C227.187 211.12 227.059 211.728 226.898 212.352C226.755 212.96 226.619 213.512 226.491 214.008C227.083 214.056 227.651 214.12 228.195 214.2C228.755 214.28 229.315 214.352 229.875 214.416C230.083 213.552 230.315 212.704 230.571 211.872C230.843 211.024 231.091 210.208 231.315 209.424C231.555 208.624 231.747 207.848 231.891 207.096C232.051 206.344 232.123 205.624 232.107 204.936C232.107 204.856 232.123 204.816 232.155 204.816C232.187 204.816 232.211 204.832 232.227 204.864C232.243 204.896 232.251 204.92 232.251 204.936C232.459 205.656 232.531 206.408 232.467 207.192C232.419 207.96 232.299 208.744 232.107 209.544C231.915 210.344 231.683 211.16 231.411 211.992C231.139 212.808 230.891 213.632 230.667 214.464C230.763 214.496 230.859 214.504 230.955 214.488C231.067 214.472 231.179 214.464 231.291 214.464C231.355 214.064 231.443 213.656 231.555 213.24C231.667 212.808 231.771 212.44 231.867 212.136C231.899 212.04 231.947 211.848 232.011 211.56C232.091 211.256 232.171 210.896 232.251 210.48C232.331 210.064 232.411 209.616 232.491 209.136C232.587 208.656 232.659 208.192 232.707 207.744C232.771 207.28 232.803 206.864 232.803 206.496C232.819 206.128 232.803 205.84 232.755 205.632C232.723 205.52 232.731 205.456 232.779 205.44C232.811 205.424 232.843 205.44 232.875 205.488C232.907 205.52 232.931 205.552 232.947 205.584C233.123 205.856 233.259 206.184 233.355 206.568C233.451 206.952 233.507 207.352 233.523 207.768C233.555 208.184 233.547 208.6 233.499 209.016C233.467 209.432 233.411 209.792 233.331 210.096C233.139 210.816 232.915 211.544 232.659 212.28C232.403 213.016 232.139 213.744 231.867 214.464L232.467 214.368C232.547 214.096 232.635 213.816 232.731 213.528C232.827 213.224 232.915 212.928 232.995 212.64C233.219 211.872 233.427 211.096 233.619 210.312C233.827 209.512 233.947 208.664 233.979 207.768C233.979 207.688 233.979 207.648 233.979 207.648C233.979 207.632 233.987 207.624 234.003 207.624C234.035 207.624 234.067 207.672 234.099 207.768C234.291 208.2 234.363 208.76 234.315 209.448C234.267 210.136 234.171 210.856 234.027 211.608C233.883 212.344 233.715 213.064 233.523 213.768C233.331 214.456 233.187 215.008 233.091 215.424C232.915 216.192 232.691 216.984 232.419 217.8C232.147 218.616 231.907 219.328 231.699 219.936C231.651 220.128 231.587 220.224 231.507 220.224C231.475 220.208 231.459 220.16 231.459 220.08C231.475 220 231.483 219.92 231.483 219.84C231.515 219.152 231.579 218.472 231.675 217.8C231.787 217.112 231.931 216.408 232.107 215.688C231.707 215.96 231.251 216.16 230.739 216.288C230.227 216.416 229.787 216.464 229.419 216.432ZM224.619 219.528C224.651 218.76 224.723 218.008 224.835 217.272C224.563 217.24 224.291 217.208 224.019 217.176C223.763 217.128 223.507 217.08 223.251 217.032C223.187 217.896 223.211 218.752 223.323 219.6C223.435 220.432 223.675 221.2 224.043 221.904C224.075 221.968 224.09 222 224.09 222C224.09 222.08 224.043 222.08 223.947 222C223.307 221.296 222.891 220.512 222.699 219.648C222.523 218.768 222.467 217.864 222.531 216.936L222.003 216.84C221.923 216.84 221.851 216.824 221.787 216.792C221.739 216.76 221.715 216.728 221.715 216.696C221.715 216.664 221.747 216.64 221.811 216.624C221.875 216.608 221.931 216.592 221.979 216.576C222.891 216.384 223.803 216.312 224.715 216.36C225.627 216.408 226.555 216.488 227.499 216.6C228.091 216.664 228.691 216.72 229.299 216.768C229.907 216.816 230.547 216.76 231.219 216.6C231.283 216.584 231.323 216.592 231.339 216.624C231.339 216.64 231.307 216.68 231.243 216.744C230.971 217 230.603 217.176 230.139 217.272C230.059 218.136 230.067 218.992 230.163 219.84C230.259 220.672 230.499 221.392 230.883 222C230.931 222.048 230.931 222.072 230.883 222.072C230.867 222.072 230.851 222.064 230.835 222.048C230.819 222.032 230.795 222.016 230.763 222C230.459 221.744 230.211 221.448 230.019 221.112C229.843 220.76 229.707 220.384 229.611 219.984C229.515 219.584 229.451 219.168 229.419 218.736C229.403 218.288 229.403 217.84 229.419 217.392C229.083 217.424 228.739 217.44 228.387 217.44C228.035 217.44 227.691 217.432 227.355 217.416C227.019 217.4 226.699 217.384 226.395 217.368C226.091 217.336 225.827 217.312 225.603 217.296C225.475 217.728 225.339 218.144 225.195 218.544C225.051 218.928 224.931 219.28 224.835 219.6C224.803 219.68 224.771 219.76 224.739 219.84C224.707 219.904 224.675 219.92 224.643 219.888C224.611 219.888 224.595 219.848 224.595 219.768C224.611 219.688 224.619 219.608 224.619 219.528ZM231.171 220.608C231.251 220.912 231.323 221.184 231.387 221.424C231.451 221.664 231.539 221.856 231.651 222C231.667 222.016 231.683 222.032 231.699 222.048C231.715 222.08 231.707 222.104 231.675 222.12C231.611 222.12 231.523 222.08 231.411 222C231.235 221.872 231.075 221.728 230.931 221.568C230.803 221.408 230.699 221.088 230.619 220.608C230.587 220.416 230.571 220.184 230.571 219.912C230.571 219.64 230.579 219.384 230.595 219.144C230.611 218.888 230.635 218.672 230.667 218.496C230.715 218.32 230.763 218.24 230.811 218.256C230.843 218.256 230.867 218.296 230.883 218.376C230.899 218.456 230.915 218.544 230.931 218.64C230.947 218.736 230.955 218.832 230.955 218.928C230.971 219.024 230.979 219.096 230.979 219.144C231.011 219.416 231.035 219.672 231.051 219.912C231.083 220.152 231.123 220.384 231.171 220.608ZM224.307 220.296C224.403 220.872 224.555 221.408 224.763 221.904C224.795 222.016 224.803 222.072 224.787 222.072C224.707 222.072 224.619 222.024 224.523 221.928C224.315 221.688 224.155 221.472 224.043 221.28C223.947 221.088 223.859 220.76 223.779 220.296C223.747 220.12 223.723 219.896 223.707 219.624C223.707 219.352 223.715 219.088 223.73 218.832C223.747 218.576 223.771 218.36 223.803 218.184C223.851 218.008 223.899 217.92 223.947 217.92C223.963 217.92 223.979 217.96 223.995 218.04C224.027 218.12 224.051 218.216 224.067 218.328C224.083 218.424 224.099 218.528 224.115 218.64C224.131 218.736 224.139 218.8 224.139 218.832C224.171 219.104 224.195 219.36 224.211 219.6C224.243 219.84 224.275 220.072 224.307 220.296ZM221.379 216.432C221.171 216.544 221.027 216.64 220.947 216.72C220.867 216.8 220.771 216.904 220.659 217.032C220.595 217.112 220.562 217.136 220.562 217.104C220.562 217.072 220.562 217.032 220.562 216.984C220.627 216.744 220.707 216.552 220.803 216.408C220.899 216.264 221.059 216.104 221.283 215.928C221.395 215.832 221.547 215.752 221.739 215.688C221.947 215.624 222.147 215.584 222.339 215.568C222.531 215.536 222.699 215.528 222.843 215.544C222.987 215.544 223.059 215.568 223.059 215.616C223.059 215.664 222.963 215.728 222.771 215.808C222.595 215.888 222.483 215.944 222.435 215.976C222.243 216.056 222.059 216.136 221.883 216.216C221.707 216.28 221.539 216.352 221.379 216.432Z" fill="white"/>
</g>
<defs>
<clipPath id="clip0_2_928">
<rect width="360" height="294" fill="white"/>
</clipPath>
<clipPath id="clip1_2_928">
<rect width="184" height="46" fill="white" transform="translate(88 196)"/>
</clipPath>
</defs>
</svg>
