<?xml version="1.0" encoding="UTF-8"?>
<svg width="360px" height="294px" viewBox="0 0 360 294" version="1.1" xmlns="http://www.w3.org/2000/svg" xmlns:xlink="http://www.w3.org/1999/xlink">
    <!-- Generator: Sketch 51.2 (57519) - http://www.bohemiancoding.com/sketch -->
    <title>nativescript_core_pro_1</title>
    <desc>Created with Sketch.</desc>
    <defs></defs>
    <g id="source_illustrations" stroke="none" stroke-width="1" fill="none" fill-rule="evenodd">
        <g id="nativescript_core_pro">
            <g id="nativescript_core_pro_image" transform="translate(58.000000, 31.000000)">
                <g id="circle_bg" transform="translate(34.000000, 21.000000)">
                    <path d="M163.648437,51.4031189 C154.1832,37.2794658 140.8675,25.9535755 125.203691,18.927801" id="line" stroke="#D55CFF"></path>
                    <path d="M164.676481,43.239527 C159.121728,36.030184 152.585754,29.6158275 145.268483,24.19638" id="line" stroke="#D55CFF"></path>
                    <circle id="circle_2" fill="#0C3E91" cx="88" cy="102" r="83"></circle>
                    <path d="M88,189.5 C39.6750844,189.5 0.5,150.324916 0.5,102 C0.5,53.6750844 39.6750844,14.5 88,14.5 C136.324916,14.5 175.5,53.6750844 175.5,102 C175.5,150.324916 136.324916,189.5 88,189.5 Z M88,188.5 C135.772631,188.5 174.5,149.772631 174.5,102 C174.5,54.2273691 135.772631,15.5 88,15.5 C40.2273691,15.5 1.5,54.2273691 1.5,102 C1.5,149.772631 40.2273691,188.5 88,188.5 Z" id="circle_1" fill="#0B49AF" fill-rule="nonzero"></path>
                    <rect id="rectangle" fill="#1550B1" transform="translate(143.500000, 127.500000) rotate(-315.000000) translate(-143.500000, -127.500000) " x="131" y="115" width="25" height="25"></rect>
                    <rect id="rectangle" fill="#1550B1" transform="translate(31.677670, 91.677670) rotate(-315.000000) translate(-31.677670, -91.677670) " x="19.1776695" y="79.1776695" width="25" height="25"></rect>
                    <rect id="rectangle" fill="#1148A3" transform="translate(24.677670, 120.838835) rotate(-315.000000) translate(-24.677670, -120.838835) " x="17.9484848" y="114.10965" width="13.4583694" height="13.4583694"></rect>
                    <rect id="rectangle" fill="#0C3F94" transform="translate(138.516504, 9.516504) rotate(-315.000000) translate(-138.516504, -9.516504) " x="131.78732" y="2.78731957" width="13.4583694" height="13.4583694"></rect>
                    <rect id="rectangle" fill="#1148A3" transform="translate(128.500000, 125.500000) rotate(-315.000000) translate(-128.500000, -125.500000) " x="111" y="108" width="35" height="35"></rect>
                    <path d="M18.0785236,134.209807 C23.7841312,147.263303 33.1970462,158.325844 44.9862432,166.066405" id="line" stroke="#FFDD97"></path>
                    <path d="M28.4674404,141.681845 C32.3525336,147.715825 37.1942235,153.075615 42.7781923,157.546898" id="line" stroke="#FFDD97"></path>
                </g>
                <g id="cup-copy-3" transform="translate(74.000000, 53.000000)" fill="#FFFFFF" fill-rule="nonzero">
                    <g id="nativescript" transform="translate(6.000000, 28.000000)">
                        <path d="M78.7749809,6.87854349 C82.7726996,10.8762622 84.8482593,15.8840358 85,21.9021962 L85,64.4031923 C84.8482593,70.4196926 82.7730316,75.4291263 78.7749809,79.426845 C74.7772621,83.4245637 69.7678284,85.5001235 63.75,85.6531923 L21.25,85.6531923 C15.2318396,85.5004555 10.224066,83.4248958 6.22634729,79.426845 C2.22862857,75.4294583 0.152736762,70.4200246 0,64.4035243 L0,21.9025282 C0.152736762,15.8843678 2.22829654,10.8765942 6.22634729,6.87887552 C10.224066,2.88082477 15.2318396,0.80493296 21.25,0.652196198 L63.75,0.652196198 C69.7678284,0.80493296 74.7772621,2.88049273 78.7749809,6.87854349 Z M72.9128775,41.0782966 C71.577095,39.7494868 70.8828068,38.0819998 70.8276887,36.0758356 L70.8276887,21.9025282 C70.785188,19.8963641 70.0965445,18.2262208 68.76209,16.8917663 C67.4273036,15.5559838 65.7558321,14.8686683 63.75,14.8264997 L56.6736394,14.8264997 L56.6736394,50.2302169 L28.3276887,14.8258356 L21.25,14.8258356 C19.2438358,14.8683363 17.5736926,15.5556517 16.2392381,16.8914343 C14.9034555,18.2262208 14.2161401,19.8963641 14.1739715,21.9018642 L14.1739715,36.0758356 C14.1185214,38.0819998 13.4242332,39.7494868 12.0884506,41.0782966 C10.7536641,42.4054462 9.08352084,43.0970781 7.07768871,43.1521962 C9.08352084,43.2086424 10.7539962,43.9002743 12.0881186,45.2274239 C13.4242332,46.5562338 14.1185214,48.2237208 14.1736394,50.2298849 L14.1736394,64.4031923 C14.2161401,66.4076963 14.9034555,68.0794997 16.2392381,69.4139542 C17.5740246,70.7487407 19.2441679,71.4370522 21.249668,71.4792208 L28.3276887,71.4792208 L28.3276887,36.0761677 L56.6736394,71.4802169 L63.75,71.4802169 C65.7558321,71.4377163 67.4276356,70.7490727 68.76209,69.4146183 C70.0968765,68.0798318 70.785188,66.4083604 70.8273567,64.4041884 L70.8273567,50.2302169 C70.8828068,48.2240528 71.577095,46.5565658 72.9128775,45.227756 C74.247664,43.9006063 75.9178073,43.2089744 77.9236394,43.1525282 C75.9178073,43.0970781 74.247332,42.4057783 72.9132096,41.0786286 L72.9128775,41.0782966 Z" id="Shape"></path>
                    </g>
                </g>
                <g id="lines_2" transform="translate(219.000000, 117.000000) scale(-1, 1) translate(-219.000000, -117.000000) translate(194.000000, 48.000000)" fill-rule="nonzero">
                    <polygon id="Path-14" fill="#185AC8" points="49.8931516 130.51155 50.1068484 131.48845 18.1068484 138.48845 17.8931516 137.51155"></polygon>
                    <polygon id="Path-15" fill="#1E61D0" points="42.9688109 122.500974 43.0311891 123.499026 11.0311891 125.499026 10.9688109 124.500974"></polygon>
                    <polygon id="Path-16" fill="#2265D4" points="39 112.5 39 113.5 5 113.5 5 112.5"></polygon>
                    <polygon id="Path-17" fill="#276BDB" points="34.0639857 103.504111 33.9360143 104.495889 2.93601433 100.495889 3.06398567 99.5041111"></polygon>
                    <polygon id="Path-18" fill="#2A6EDF" points="32.1394051 93.5198269 31.8605949 94.4801731 0.860594903 85.4801731 1.1394051 84.5198269"></polygon>
                    <polygon id="Path-19" fill="#2F73E4" points="30.1988037 83.5412222 29.8011963 84.4587778 -0.198803719 71.4587778 0.198803719 70.5412222"></polygon>
                    <polygon id="Path-20" fill="#367BEE" points="28.6008916 64.5859803 27.9213342 65.3196026 4.7617814 43.8668112 5.44133883 43.1331888"></polygon>
                    <polygon id="Path-20" fill="#3176E8" points="29.2773501 74.5839749 28.7226499 75.4160251 1.7226499 57.4160251 2.2773501 56.5839749"></polygon>
                    <polygon id="Path-21" fill="#3A7FF3" points="32.3889706 54.6858314 31.6110294 55.3141686 10.6110294 29.3141686 11.3889706 28.6858314"></polygon>
                    <polygon id="Path-22" fill="#3F84F8" points="35.4389478 43.7605739 34.5610522 44.2394261 16.5610522 11.2394261 17.4389478 10.7605739"></polygon>
                    <polygon id="Path-23" fill="#4389FE" points="40.4652042 32.8167377 39.5347958 33.1832623 26.5347958 0.183262259 27.4652042 -0.183262259"></polygon>
                </g>
                <g id="lines_1" transform="translate(0.000000, 48.000000)" fill-rule="nonzero">
                    <polygon id="Path-14" fill="#185AC8" points="49.4821443 130.510431 49.6853367 131.489569 18.1015962 138.043875 17.8984038 137.064736"></polygon>
                    <polygon id="Path-15" fill="#1E61D0" points="43.2418272 122.501249 43.3124724 123.498751 11.0353226 125.784688 10.9646774 124.787187"></polygon>
                    <polygon id="Path-16" fill="#2265D4" points="39.0281599 112.5 39.0281599 113.5 5 113.5 5 112.5"></polygon>
                    <polygon id="Path-17" fill="#276BDB" points="34.0502611 103.226062 33.9249811 104.218183 3.17342364 100.335034 3.29870367 99.3429125"></polygon>
                    <polygon id="Path-18" fill="#2A6EDF" points="32.5601188 93.6535808 32.2936282 94.6174183 0.818928984 85.9150045 1.08541963 84.951167"></polygon>
                    <polygon id="Path-19" fill="#2F73E4" points="30.3436684 83.51643 29.9438547 84.4330264 0.198533001 71.4582982 0.598346768 70.5417018"></polygon>
                    <polygon id="Path-20" fill="#367BEE" points="28.9993315 64.5859803 28.3197741 65.3196026 5.16022128 43.8668112 5.83977872 43.1331888"></polygon>
                    <polygon id="Path-20" fill="#3176E8" points="28.5231729 74.1184168 27.9641043 74.9475382 1.22046571 56.9145607 1.77953429 56.0854393"></polygon>
                    <polygon id="Path-21" fill="#3A7FF3" points="32.6096921 55.0476295 31.8249584 55.6674626 11.0060731 29.3099166 11.7908067 28.6900834"></polygon>
                    <polygon id="Path-22" fill="#3F84F8" points="36.0469277 43.837269 35.170906 44.3195406 16.960429 11.2411358 17.8364508 10.7588642"></polygon>
                    <polygon id="Path-23" fill="#4389FE" points="40.4792274 33.2880641 39.5434857 33.6407502 26.930569 0.17634306 27.8663107 -0.17634306"></polygon>
                </g>
            </g>
        </g>
    </g>
</svg>