<?xml version="1.0" encoding="UTF-8"?>
<svg width="360px" height="294px" viewBox="0 0 360 294" version="1.1" xmlns="http://www.w3.org/2000/svg" xmlns:xlink="http://www.w3.org/1999/xlink">
    <!-- Generator: Sketch 51.2 (57519) - http://www.bohemiancoding.com/sketch -->
    <title>nativescript_core_pro_1</title>
    <desc>Created with Sketch.</desc>
    <defs></defs>
    <g id="source_illustrations" stroke="none" stroke-width="1" fill="none" fill-rule="evenodd">
        <g id="nativescript_core_pro">
            <g id="nativescript_core_pro_image" transform="translate(58.000000, 31.000000)">
                <g id="circle_bg" transform="translate(34.000000, 21.000000)">
                    <path d="M163.648437,51.4031189 C154.1832,37.2794658 140.8675,25.9535755 125.203691,18.927801" id="line" stroke="#D55CFF"></path>
                    <path d="M164.676481,43.239527 C159.121728,36.030184 152.585754,29.6158275 145.268483,24.19638" id="line" stroke="#D55CFF"></path>
                    <circle id="circle_2" fill="#0C3E91" cx="88" cy="102" r="83"></circle>
                    <path d="M88,189.5 C39.6750844,189.5 0.5,150.324916 0.5,102 C0.5,53.6750844 39.6750844,14.5 88,14.5 C136.324916,14.5 175.5,53.6750844 175.5,102 C175.5,150.324916 136.324916,189.5 88,189.5 Z M88,188.5 C135.772631,188.5 174.5,149.772631 174.5,102 C174.5,54.2273691 135.772631,15.5 88,15.5 C40.2273691,15.5 1.5,54.2273691 1.5,102 C1.5,149.772631 40.2273691,188.5 88,188.5 Z" id="circle_1" fill="#0B49AF" fill-rule="nonzero"></path>
                    <rect id="rectangle" fill="#1550B1" transform="translate(143.500000, 127.500000) rotate(-315.000000) translate(-143.500000, -127.500000) " x="131" y="115" width="25" height="25"></rect>
                    <rect id="rectangle" fill="#1550B1" transform="translate(31.677670, 91.677670) rotate(-315.000000) translate(-31.677670, -91.677670) " x="19.1776695" y="79.1776695" width="25" height="25"></rect>
                    <rect id="rectangle" fill="#1148A3" transform="translate(24.677670, 120.838835) rotate(-315.000000) translate(-24.677670, -120.838835) " x="17.9484848" y="114.10965" width="13.4583694" height="13.4583694"></rect>
                    <rect id="rectangle" fill="#0C3F94" transform="translate(138.516504, 9.516504) rotate(-315.000000) translate(-138.516504, -9.516504) " x="131.78732" y="2.78731957" width="13.4583694" height="13.4583694"></rect>
                    <rect id="rectangle" fill="#1148A3" transform="translate(128.500000, 125.500000) rotate(-315.000000) translate(-128.500000, -125.500000) " x="111" y="108" width="35" height="35"></rect>
                    <path d="M18.0785236,134.209807 C23.7841312,147.263303 33.1970462,158.325844 44.9862432,166.066405" id="line" stroke="#FFDD97"></path>
                    <path d="M28.4674404,141.681845 C32.3525336,147.715825 37.1942235,153.075615 42.7781923,157.546898" id="line" stroke="#FFDD97"></path>
                </g>
                <g id="cup-copy-3" transform="translate(62.000000, 53.000000)" fill="#FFFFFF" fill-rule="nonzero">
                    <g id="nativescript" transform="translate(68.000000, 40.000000)">
                        <path d="M52.8255754,4.61267034 C55.5063985,7.29349347 56.8982445,10.6516475 57,14.6873551 L57,43.1880231 C56.8982445,47.2226174 55.5066212,50.5818847 52.8255754,53.2627078 C50.1447523,55.943531 46.7854849,57.3353769 42.75,57.4380231 L14.25,57.4380231 C10.2142924,57.3355996 6.85613838,55.9437536 4.17531524,53.2627078 C1.4944921,50.5821074 0.102423475,47.22284 0,43.1882457 L0,14.6875778 C0.102423475,10.6518702 1.49426944,7.29371613 4.17531524,4.612893 C6.85613838,1.9318472 10.2142924,0.539778573 14.25,0.437355098 L42.75,0.437355098 C46.7854849,0.539778573 50.1447523,1.93162454 52.8255754,4.61267034 Z M48.8945179,27.5466224 C47.9987578,26.6555382 47.5331763,25.537341 47.4962148,24.192031 L47.4962148,14.6875778 C47.4677143,13.3422677 47.0059181,12.2222892 46.1110486,11.3274198 C45.2159565,10.4316597 44.0950874,9.97075406 42.75,9.94247627 L38.0046759,9.94247627 L38.0046759,33.6837925 L18.9962148,9.94203095 L14.25,9.94203095 C12.9046899,9.9705314 11.7847115,10.431437 10.889842,11.3271971 C9.99408194,12.2222892 9.5331763,13.3422677 9.50489851,14.6871324 L9.50489851,24.192031 C9.46771434,25.537341 9.00213285,26.6555382 8.10637276,27.5466224 C7.21128065,28.4365934 6.09130221,28.9003936 4.74621478,28.9373551 C6.09130221,28.9752073 7.2115033,29.4390075 8.1061501,30.3289784 C9.00213285,31.2200626 9.46771434,32.3382598 9.50467585,33.6835699 L9.50467585,43.1880231 C9.5331763,44.5322199 9.99408194,45.6533116 10.889842,46.548181 C11.7849341,47.4432732 12.9049126,47.9048468 14.2497773,47.9331246 L18.9962148,47.9331246 L18.9962148,24.1922536 L38.0046759,47.9337925 L42.75,47.9337925 C44.0950874,47.9052921 45.2161792,47.4434958 46.1110486,46.5486264 C47.0061407,45.6535343 47.4677143,44.5326652 47.4959921,43.1886911 L47.4959921,33.6837925 C47.5331763,32.3384825 47.9987578,31.2202853 48.8945179,30.3292011 C49.78961,29.4392301 50.9095884,28.9754299 52.2546759,28.9375778 C50.9095884,28.9003936 49.7893873,28.436816 48.8947405,27.5468451 L48.8945179,27.5466224 Z" id="Shape"></path>
                    </g>
                    <g id="cordova" transform="translate(-1.000000, 40.000000)">
                        <path d="M52.7272109,55.3637187 L43.3352891,55.3637187 L43.9943594,47.4544219 L39.3806406,47.4544219 L38.7215703,55.3637187 L19.2784297,55.3637187 L18.6191328,47.4544219 L14.0058672,47.4544219 L14.6651641,55.3637187 L5.2725625,55.3637187 L0,21.0907031 L13.1818594,0 L44.8181406,0 L58,21.0907031 L52.7272109,55.3637187 Z M42.1818594,10.5453516 L33.7077422,10.5453516 L34.2727891,14.5 L23.7272109,14.5 L24.2922578,10.5453516 L15.8181406,10.5453516 L10.5453516,21.0909297 L13.1818594,42.1816328 L44.8181406,42.1816328 L47.4546484,21.0909297 L42.1818594,10.5453516 Z M37.5681406,35.1822109 C36.8401953,35.1822109 36.25,32.9868203 36.25,30.2787187 C36.25,27.5703906 36.8401953,25.375 37.5681406,25.375 C38.2960859,25.375 38.8862813,27.5703906 38.8862813,30.2787187 C38.8862813,32.9868203 38.2960859,35.1822109 37.5681406,35.1822109 Z M20.9262188,35.5909297 C20.1982734,35.5909297 19.6078516,33.3955391 19.6078516,30.6872109 C19.6078516,27.9791094 20.1982734,25.7837187 20.9262188,25.7837187 C21.6541641,25.7837187 22.2443594,27.9791094 22.2443594,30.6872109 C22.2443594,33.3955391 21.6541641,35.5909297 20.9262188,35.5909297 Z" id="Shape"></path>
                    </g>
                </g>
                <g id="lines_2" transform="translate(219.000000, 117.000000) scale(-1, 1) translate(-219.000000, -117.000000) translate(194.000000, 48.000000)" fill-rule="nonzero">
                    <polygon id="Path-14" fill="#185AC8" points="49.8931516 130.51155 50.1068484 131.48845 18.1068484 138.48845 17.8931516 137.51155"></polygon>
                    <polygon id="Path-15" fill="#1E61D0" points="42.9688109 122.500974 43.0311891 123.499026 11.0311891 125.499026 10.9688109 124.500974"></polygon>
                    <polygon id="Path-16" fill="#2265D4" points="39 112.5 39 113.5 5 113.5 5 112.5"></polygon>
                    <polygon id="Path-17" fill="#276BDB" points="34.0639857 103.504111 33.9360143 104.495889 2.93601433 100.495889 3.06398567 99.5041111"></polygon>
                    <polygon id="Path-18" fill="#2A6EDF" points="32.1394051 93.5198269 31.8605949 94.4801731 0.860594903 85.4801731 1.1394051 84.5198269"></polygon>
                    <polygon id="Path-19" fill="#2F73E4" points="30.1988037 83.5412222 29.8011963 84.4587778 -0.198803719 71.4587778 0.198803719 70.5412222"></polygon>
                    <polygon id="Path-20" fill="#367BEE" points="28.6008916 64.5859803 27.9213342 65.3196026 4.7617814 43.8668112 5.44133883 43.1331888"></polygon>
                    <polygon id="Path-20" fill="#3176E8" points="29.2773501 74.5839749 28.7226499 75.4160251 1.7226499 57.4160251 2.2773501 56.5839749"></polygon>
                    <polygon id="Path-21" fill="#3A7FF3" points="32.3889706 54.6858314 31.6110294 55.3141686 10.6110294 29.3141686 11.3889706 28.6858314"></polygon>
                    <polygon id="Path-22" fill="#3F84F8" points="35.4389478 43.7605739 34.5610522 44.2394261 16.5610522 11.2394261 17.4389478 10.7605739"></polygon>
                    <polygon id="Path-23" fill="#4389FE" points="40.4652042 32.8167377 39.5347958 33.1832623 26.5347958 0.183262259 27.4652042 -0.183262259"></polygon>
                </g>
                <g id="lines_1" transform="translate(0.000000, 48.000000)" fill-rule="nonzero">
                    <polygon id="Path-14" fill="#185AC8" points="49.4821443 130.510431 49.6853367 131.489569 18.1015962 138.043875 17.8984038 137.064736"></polygon>
                    <polygon id="Path-15" fill="#1E61D0" points="43.2418272 122.501249 43.3124724 123.498751 11.0353226 125.784688 10.9646774 124.787187"></polygon>
                    <polygon id="Path-16" fill="#2265D4" points="39.0281599 112.5 39.0281599 113.5 5 113.5 5 112.5"></polygon>
                    <polygon id="Path-17" fill="#276BDB" points="34.0502611 103.226062 33.9249811 104.218183 3.17342364 100.335034 3.29870367 99.3429125"></polygon>
                    <polygon id="Path-18" fill="#2A6EDF" points="32.5601188 93.6535808 32.2936282 94.6174183 0.818928984 85.9150045 1.08541963 84.951167"></polygon>
                    <polygon id="Path-19" fill="#2F73E4" points="30.3436684 83.51643 29.9438547 84.4330264 0.198533001 71.4582982 0.598346768 70.5417018"></polygon>
                    <polygon id="Path-20" fill="#367BEE" points="28.9993315 64.5859803 28.3197741 65.3196026 5.16022128 43.8668112 5.83977872 43.1331888"></polygon>
                    <polygon id="Path-20" fill="#3176E8" points="28.5231729 74.1184168 27.9641043 74.9475382 1.22046571 56.9145607 1.77953429 56.0854393"></polygon>
                    <polygon id="Path-21" fill="#3A7FF3" points="32.6096921 55.0476295 31.8249584 55.6674626 11.0060731 29.3099166 11.7908067 28.6900834"></polygon>
                    <polygon id="Path-22" fill="#3F84F8" points="36.0469277 43.837269 35.170906 44.3195406 16.960429 11.2411358 17.8364508 10.7588642"></polygon>
                    <polygon id="Path-23" fill="#4389FE" points="40.4792274 33.2880641 39.5434857 33.6407502 26.930569 0.17634306 27.8663107 -0.17634306"></polygon>
                </g>
            </g>
        </g>
    </g>
</svg>